<?xml version="1.0" encoding="UTF-8"?>
<svg version="1.1" xmlns="http://www.w3.org/2000/svg" width="325" height="259">
<path d="M0 0 C6.62193365 0.04966604 13.24374437 0.07566635 19.86582279 0.09643078 C25.05071399 0.11696289 30.23537947 0.15488265 35.42013359 0.19729042 C37.86003459 0.21437764 40.29998877 0.22526621 42.73994637 0.22923851 C76.70828104 0.3008974 103.65561669 5.69581489 128.42407227 30.42651367 C149.97240074 53.05882818 154.71514681 81.54800173 153.99780273 111.75219727 C152.88760882 137.14340649 141.89025931 160.83043827 123.42407227 178.24291992 C103.01539416 195.88673521 78.29045995 201.9972984 51.81567383 202.02563477 C50.76071213 202.03071548 49.70575043 202.0357962 48.61882019 202.04103088 C46.34632423 202.05166582 44.07381824 202.06031246 41.80130768 202.06715012 C38.20307582 202.07901946 34.60495969 202.09848827 31.0067749 202.12026978 C20.78279452 202.181647 10.55883066 202.23603091 0.3347168 202.26928711 C-5.93387393 202.29021945 -12.20224531 202.32549746 -18.47071075 202.37004471 C-20.85489577 202.38420048 -23.23911949 202.39292618 -25.62334442 202.39609909 C-28.9525 202.40100268 -32.28107058 202.42414286 -35.61010742 202.45141602 C-36.59205582 202.44840988 -37.57400421 202.44540375 -38.58570862 202.44230652 C-44.65864791 202.5162599 -49.11903906 203.23703046 -53.86889648 207.37573242 C-54.3497168 207.9094043 -54.83053711 208.44307617 -55.32592773 208.99291992 C-59.37808634 213.22087717 -63.850941 216.80484361 -68.41040039 220.46948242 C-71.86242762 223.26309813 -75.27745975 226.1019467 -78.70092773 228.93041992 C-84.00470629 233.3055596 -89.32555434 237.65306358 -94.72436523 241.91088867 C-96.61762474 243.44571555 -98.46461867 245.0069786 -100.30249023 246.60620117 C-100.84607178 247.07445312 -101.38965332 247.54270508 -101.94970703 248.02514648 C-103.49707336 249.36227914 -105.0348215 250.71051836 -106.57202148 252.05932617 C-107.41893555 252.65616211 -108.26584961 253.25299805 -109.13842773 253.86791992 C-110.12842773 253.53791992 -111.11842773 253.20791992 -112.13842773 252.86791992 C-112.13842773 233.39791992 -112.13842773 213.92791992 -112.13842773 193.86791992 C-113.78842773 193.20791992 -115.43842773 192.54791992 -117.13842773 191.86791992 C-140.15798935 179.54655201 -155.56281525 158.50174218 -163.09545898 133.94995117 C-165.80417103 123.8052368 -166.47656314 114.107928 -166.45092773 103.61791992 C-166.46704102 102.31467773 -166.4831543 101.01143555 -166.49975586 99.66870117 C-166.50438898 90.31906591 -165.31830441 81.92103319 -163.13842773 72.86791992 C-162.94498779 72.06451172 -162.75154785 71.26110352 -162.55224609 70.43334961 C-158.6352182 55.32507653 -151.67519061 42.40213883 -141.13842773 30.86791992 C-140.44104492 30.08932617 -139.74366211 29.31073242 -139.02514648 28.50854492 C-121.99179443 10.44758662 -98.3542335 1.21335435 -73.80223083 0.32670593 C-71.99058189 0.27943108 -71.99058189 0.27943108 -70.14233398 0.23120117 C-69.48807497 0.21248774 -68.83381596 0.1937743 -68.15973091 0.17449379 C-45.44924346 -0.45607354 -22.7151028 -0.17382546 0 0 Z " fill="#FDFEFD" transform="translate(169.138427734375,2.132080078125)"/>
<path d="M0 0 C1.11084961 0.02030273 1.11084961 0.02030273 2.24414062 0.04101562 C4.05891075 0.07614021 5.87330288 0.12994028 7.6875 0.1875 C7.74808594 1.46367187 7.80867188 2.73984375 7.87109375 4.0546875 C7.95549568 5.72397016 8.04014386 7.39324037 8.125 9.0625 C8.16431641 9.90425781 8.20363281 10.74601562 8.24414062 11.61328125 C8.28603516 12.41894531 8.32792969 13.22460938 8.37109375 14.0546875 C8.40775146 14.79831543 8.44440918 15.54194336 8.48217773 16.30810547 C8.58705865 18.27614312 8.58705865 18.27614312 9.6875 20.1875 C10.93466797 20.04441406 10.93466797 20.04441406 12.20703125 19.8984375 C13.29371094 19.78757812 14.38039063 19.67671875 15.5 19.5625 C16.57894531 19.44648437 17.65789062 19.33046875 18.76953125 19.2109375 C21.6875 19.1875 21.6875 19.1875 24.6875 21.1875 C25.11026465 24.42869567 25.07231521 26.44960692 23.55078125 29.3671875 C21.6875 31.1875 21.6875 31.1875 18.76953125 31.578125 C17.69058594 31.53171875 16.61164063 31.4853125 15.5 31.4375 C14.41332031 31.40140625 13.32664062 31.3653125 12.20703125 31.328125 C10.95986328 31.25851563 10.95986328 31.25851563 9.6875 31.1875 C9.56619381 38.27717304 9.87070926 45.14267985 10.6875 52.1875 C0.7875 52.6825 0.7875 52.6825 -9.3125 53.1875 C-8.8175 55.1675 -8.8175 55.1675 -8.3125 57.1875 C-8.19958495 58.72629581 -8.13790033 60.26962089 -8.125 61.8125 C-8.11082031 62.58851562 -8.09664063 63.36453125 -8.08203125 64.1640625 C-8.3125 66.1875 -8.3125 66.1875 -10.3125 68.1875 C-12.40625 68.453125 -12.40625 68.453125 -14.8125 68.4375 C-15.6065625 68.44265625 -16.400625 68.4478125 -17.21875 68.453125 C-19.3125 68.1875 -19.3125 68.1875 -21.3125 66.1875 C-21.59033543 62.17555634 -21.3981495 58.21302638 -21.3125 54.1875 C-26.9225 54.1875 -32.5325 54.1875 -38.3125 54.1875 C-38.1475 55.63125 -37.9825 57.075 -37.8125 58.5625 C-36.75750019 69.29597629 -36.75750019 69.29597629 -37.3125 74.1875 C-39.3125 76.1875 -39.3125 76.1875 -42.1328125 76.3828125 C-43.22335938 76.35960938 -44.31390625 76.33640625 -45.4375 76.3125 C-46.53320312 76.29445313 -47.62890625 76.27640625 -48.7578125 76.2578125 C-49.60085937 76.23460938 -50.44390625 76.21140625 -51.3125 76.1875 C-51.3125 78.8275 -51.3125 81.4675 -51.3125 84.1875 C-44.8775 83.6925 -44.8775 83.6925 -38.3125 83.1875 C-36.21040143 86.34064785 -36.0690239 87.04853081 -36.1171875 90.63671875 C-36.12363281 91.48427734 -36.13007813 92.33183594 -36.13671875 93.20507812 C-36.16185547 94.52668945 -36.16185547 94.52668945 -36.1875 95.875 C-36.19652344 96.76767578 -36.20554687 97.66035156 -36.21484375 98.58007812 C-36.23840252 100.78282314 -36.27129671 102.98502588 -36.3125 105.1875 C-37.7975 104.6925 -37.7975 104.6925 -39.3125 104.1875 C-40.7847698 104.18333025 -42.25779154 104.24222346 -43.7265625 104.34375 C-44.56960937 104.39660156 -45.41265625 104.44945312 -46.28125 104.50390625 C-47.1578125 104.56449219 -48.034375 104.62507813 -48.9375 104.6875 C-50.67936808 104.80684082 -52.42155283 104.92167501 -54.1640625 105.03125 C-55.32156006 105.11149414 -55.32156006 105.11149414 -56.50244141 105.19335938 C-58.3125 105.1875 -58.3125 105.1875 -59.3125 104.1875 C-59.38478215 101.07936744 -59.30864587 97.98323128 -59.25 94.875 C-59.00116942 92.268672 -59.00116942 92.268672 -60.3125 91.1875 C-63.77071402 90.93746036 -63.77071402 90.93746036 -67.3125 91.1875 C-67.9725 91.8475 -68.6325 92.5075 -69.3125 93.1875 C-69.0394226 96.07910979 -69.0394226 96.07910979 -68.3125 99.1875 C-68.0340625 100.610625 -68.0340625 100.610625 -67.75 102.0625 C-67.605625 102.76375 -67.46125 103.465 -67.3125 104.1875 C-70.23074244 105.85424321 -72.28844379 106.4307008 -75.640625 106.3828125 C-76.3615332 106.37781738 -77.08244141 106.37282227 -77.82519531 106.36767578 C-79.18016113 106.34036377 -79.18016113 106.34036377 -80.5625 106.3125 C-84.89375 106.250625 -84.89375 106.250625 -89.3125 106.1875 C-89.8075 96.7825 -89.8075 96.7825 -90.3125 87.1875 C-93.41911838 85.87932906 -93.41911838 85.87932906 -97.1875 86.9375 C-100.80806021 87.45950313 -101.12876942 87.31498652 -104.375 85.0625 C-106.3125 82.1875 -106.3125 82.1875 -106.25 79.5 C-105.3125 77.1875 -105.3125 77.1875 -103.3125 75.1875 C-100.4921875 74.9921875 -100.4921875 74.9921875 -97.1875 75.0625 C-96.09179688 75.08054687 -94.99609375 75.09859375 -93.8671875 75.1171875 C-93.02414063 75.14039062 -92.18109375 75.16359375 -91.3125 75.1875 C-91.42851563 74.61902344 -91.54453125 74.05054687 -91.6640625 73.46484375 C-91.97993669 70.76186315 -92.00629108 68.8323157 -91.3125 66.1875 C-88.34331492 63.21831492 -84.95474841 61.23992027 -81.3125 59.1875 C-77.66039323 57.31882361 -77.66039323 57.31882361 -75.3125 54.1875 C-73.3325 53.6925 -73.3325 53.6925 -71.3125 53.1875 C-71.6425 49.5575 -71.9725 45.9275 -72.3125 42.1875 C-69.3125 46.1875 -69.3125 46.1875 -69.3125 50.1875 C-66.6725 49.8575 -64.0325 49.5275 -61.3125 49.1875 C-60.8175 51.1675 -60.8175 51.1675 -60.3125 53.1875 C-59.02472656 53.1875 -57.73695313 53.1875 -56.41015625 53.1875 C-51.37760417 53.1875 -46.34505208 53.1875 -41.3125 53.1875 C-41.32297363 52.62240723 -41.33344727 52.05731445 -41.34423828 51.47509766 C-41.38574788 48.92094347 -41.4118096 46.36686018 -41.4375 43.8125 C-41.45425781 42.92304687 -41.47101563 42.03359375 -41.48828125 41.1171875 C-41.49472656 40.26640625 -41.50117188 39.415625 -41.5078125 38.5390625 C-41.51828613 37.75354004 -41.52875977 36.96801758 -41.53955078 36.15869141 C-41.3125 34.1875 -41.3125 34.1875 -39.3125 32.1875 C-36.96484375 32.02734375 -36.96484375 32.02734375 -34.25 32.125 C-32.60493023 32.17928494 -30.95833976 32.20781901 -29.3125 32.1875 C-27.91962194 31.01713695 -27.91962194 31.01713695 -28.125 27.75 C-27.91685072 24.13717279 -27.91685072 24.13717279 -30.3125 22.1875 C-32.9576366 22.20390153 -32.9576366 22.20390153 -35.875 22.625 C-37.68342516 22.84840753 -39.49593758 23.0446243 -41.3125 23.1875 C-44.39761672 20.10238328 -43.39050712 11.30736641 -43.4375 7.125 C-43.3125 3.1875 -43.3125 3.1875 -42.3125 2.1875 C-40.83597336 2.08869203 -39.35482764 2.05670755 -37.875 2.0546875 C-36.98039062 2.05339844 -36.08578125 2.05210938 -35.1640625 2.05078125 C-34.22304687 2.05464844 -33.28203125 2.05851562 -32.3125 2.0625 C-30.90097656 2.05669922 -30.90097656 2.05669922 -29.4609375 2.05078125 C-28.11902344 2.05271484 -28.11902344 2.05271484 -26.75 2.0546875 C-25.92371094 2.05581543 -25.09742188 2.05694336 -24.24609375 2.05810547 C-22.3125 2.1875 -22.3125 2.1875 -21.3125 3.1875 C-21.24005947 5.20714199 -21.22872812 7.22917124 -21.25 9.25 C-21.25902344 10.35472656 -21.26804687 11.45945312 -21.27734375 12.59765625 C-21.28894531 13.45230469 -21.30054688 14.30695312 -21.3125 15.1875 C-17.90929066 15.86423447 -17.90929066 15.86423447 -14.3125 16.1875 C-13.6525 15.5275 -12.9925 14.8675 -12.3125 14.1875 C-12.29042512 11.50936601 -12.29042512 11.50936601 -12.6875 8.5625 C-12.79835938 7.55960938 -12.90921875 6.55671875 -13.0234375 5.5234375 C-13.11882812 4.75257812 -13.21421875 3.98171875 -13.3125 3.1875 C-8.98702966 -0.06300138 -5.21560648 -0.18177717 0 0 Z " fill="#397CC6" transform="translate(213.3125,28.8125)"/>
<path d="M0 0 C3.64493703 2.21299748 4.03535838 6.06723034 5 10 C8.77293011 9.35931376 11.34774012 7.61305333 14.5 5.5 C20.26760563 1.63380282 20.26760563 1.63380282 24 1 C30 11 30 11 31.51171875 13.83203125 C32.24841797 14.90517578 32.24841797 14.90517578 33 16 C33.99 16 34.98 16 36 16 C36.763125 15.175 37.52625 14.35 38.3125 13.5 C41 11 41 11 44.125 10.5 C47 11 47 11 48.875 12.0625 C50.66235303 15.14071911 50.43386742 17.52906068 50 21 C47.41126058 23.87637713 44.76085859 24.47765853 41 25 C41.69420651 30.46439692 44.50028429 33.95989125 47.6015625 38.37890625 C49 41 49 41 49.03515625 43.07421875 C47.50136406 45.92765102 45.41783617 47.35137445 42.8125 49.25 C41.87019531 49.95640625 40.92789063 50.6628125 39.95703125 51.390625 C36.65895581 53.18561454 34.69548293 53.32848737 31 53 C30.34 51.02 29.68 49.04 29 47 C29.495 51.455 29.495 51.455 30 56 C27.525 56.495 27.525 56.495 25 57 C24.67 57.99 24.34 58.98 24 60 C21.73388125 61.62569389 19.49762376 63.11098466 17.125 64.5625 C15.85676847 65.35546497 14.58853922 66.14843359 13.3203125 66.94140625 C11.67675781 67.96041016 11.67675781 67.96041016 10 69 C8.515 69.99 8.515 69.99 7 71 C-3.14568686 56.9350204 -3.14568686 56.9350204 -2.84765625 52.9765625 C-2 51 -2 51 0.06640625 49.734375 C1.30197266 49.24710938 1.30197266 49.24710938 2.5625 48.75 C3.38878906 48.41484375 4.21507813 48.0796875 5.06640625 47.734375 C5.70449219 47.49203125 6.34257813 47.2496875 7 47 C7.16687448 44.58354218 7.16687448 44.58354218 7 42 C5.12355493 39.68313634 5.12355493 39.68313634 2.0625 39.8125 C-1.04093079 39.87049768 -1.04093079 39.87049768 -4 41 C-5.20882096 43.00016466 -5.20882096 43.00016466 -6 45 C-8.58523109 44.62031163 -9.7665704 44.24427352 -11.59765625 42.328125 C-13.07855536 40.22722279 -14.55562114 38.12622251 -16 36 C-16.639375 35.113125 -17.27875 34.22625 -17.9375 33.3125 C-19 31 -19 31 -18.97265625 28.609375 C-17.57876085 24.86992871 -14.86130314 23.71806292 -11.5 21.9375 C-6.93208502 19.72267925 -6.93208502 19.72267925 -4.09375 15.75390625 C-4.0628125 15.17511719 -4.031875 14.59632812 -4 14 C-5.2065625 13.195625 -5.2065625 13.195625 -6.4375 12.375 C-9 10 -9 10 -10.0625 7 C-10 4 -10 4 -8.4375 1.625 C-5.3433886 -0.43774093 -3.65259739 -0.54400387 0 0 Z " fill="#F25A4C" transform="translate(113,26)"/>
<path d="M0 0 C1.11084961 0.02030273 1.11084961 0.02030273 2.24414062 0.04101562 C4.05891075 0.07614021 5.87330288 0.12994028 7.6875 0.1875 C7.74808594 1.46367187 7.80867188 2.73984375 7.87109375 4.0546875 C7.95549568 5.72397016 8.04014386 7.39324037 8.125 9.0625 C8.16431641 9.90425781 8.20363281 10.74601562 8.24414062 11.61328125 C8.28603516 12.41894531 8.32792969 13.22460938 8.37109375 14.0546875 C8.42608032 15.17012939 8.42608032 15.17012939 8.48217773 16.30810547 C8.58705865 18.27614312 8.58705865 18.27614312 9.6875 20.1875 C10.93466797 20.04441406 10.93466797 20.04441406 12.20703125 19.8984375 C13.29371094 19.78757812 14.38039062 19.67671875 15.5 19.5625 C16.57894531 19.44648437 17.65789062 19.33046875 18.76953125 19.2109375 C21.6875 19.1875 21.6875 19.1875 24.6875 21.1875 C25.11026465 24.42869567 25.07231521 26.44960692 23.55078125 29.3671875 C21.6875 31.1875 21.6875 31.1875 18.76953125 31.578125 C17.69058594 31.53171875 16.61164063 31.4853125 15.5 31.4375 C12.6228125 31.31375 12.6228125 31.31375 9.6875 31.1875 C9.6875 37.4575 9.6875 43.7275 9.6875 50.1875 C1.4375 50.625 1.4375 50.625 -1.14160156 50.75561523 C-1.8219043 50.79372314 -2.50220703 50.83183105 -3.203125 50.87109375 C-4.24001465 50.92608032 -4.24001465 50.92608032 -5.29785156 50.98217773 C-7.37878329 51.19425524 -9.29822422 51.63258677 -11.3125 52.1875 C-10.8175 54.0128125 -10.8175 54.0128125 -10.3125 55.875 C-9.53115545 59.05096886 -8.82998164 61.90637512 -9.3125 65.1875 C-13.1628105 67.75437367 -14.89819763 67.02038724 -19.3125 66.1875 C-19.3125 61.8975 -19.3125 57.6075 -19.3125 53.1875 C-21.609037 52.0392315 -22.89563167 52.07188825 -25.4453125 52.08984375 C-26.25097656 52.09306641 -27.05664062 52.09628906 -27.88671875 52.09960938 C-28.72847656 52.10798828 -29.57023438 52.11636719 -30.4375 52.125 C-31.71173828 52.13176758 -31.71173828 52.13176758 -33.01171875 52.13867188 C-35.11200909 52.15047126 -37.2122633 52.16840694 -39.3125 52.1875 C-39.6425 52.8475 -39.9725 53.5075 -40.3125 54.1875 C-42.5522148 51.9477852 -41.49781833 46.75852512 -41.5 43.75 C-41.51224609 42.86505859 -41.52449219 41.98011719 -41.53710938 41.06835938 C-41.53904297 40.22208984 -41.54097656 39.37582031 -41.54296875 38.50390625 C-41.54707764 37.72474854 -41.55118652 36.94559082 -41.55541992 36.14282227 C-41.3125 34.1875 -41.3125 34.1875 -39.3125 32.1875 C-36.96484375 32.02734375 -36.96484375 32.02734375 -34.25 32.125 C-32.60493023 32.17928494 -30.95833976 32.20781901 -29.3125 32.1875 C-27.91962194 31.01713695 -27.91962194 31.01713695 -28.125 27.75 C-27.91685072 24.13717279 -27.91685072 24.13717279 -30.3125 22.1875 C-32.9576366 22.20390153 -32.9576366 22.20390153 -35.875 22.625 C-37.68342516 22.84840753 -39.49593758 23.0446243 -41.3125 23.1875 C-44.39761672 20.10238328 -43.39050712 11.30736641 -43.4375 7.125 C-43.3125 3.1875 -43.3125 3.1875 -42.3125 2.1875 C-40.83597336 2.08869203 -39.35482764 2.05670755 -37.875 2.0546875 C-36.98039063 2.05339844 -36.08578125 2.05210938 -35.1640625 2.05078125 C-34.22304687 2.05464844 -33.28203125 2.05851562 -32.3125 2.0625 C-30.90097656 2.05669922 -30.90097656 2.05669922 -29.4609375 2.05078125 C-28.11902344 2.05271484 -28.11902344 2.05271484 -26.75 2.0546875 C-25.92371094 2.05581543 -25.09742188 2.05694336 -24.24609375 2.05810547 C-22.3125 2.1875 -22.3125 2.1875 -21.3125 3.1875 C-21.24005947 5.20714199 -21.22872812 7.22917124 -21.25 9.25 C-21.25902344 10.35472656 -21.26804688 11.45945312 -21.27734375 12.59765625 C-21.28894531 13.45230469 -21.30054688 14.30695312 -21.3125 15.1875 C-17.90929066 15.86423447 -17.90929066 15.86423447 -14.3125 16.1875 C-13.6525 15.5275 -12.9925 14.8675 -12.3125 14.1875 C-12.29042512 11.50936601 -12.29042512 11.50936601 -12.6875 8.5625 C-12.79835937 7.55960938 -12.90921875 6.55671875 -13.0234375 5.5234375 C-13.11882812 4.75257812 -13.21421875 3.98171875 -13.3125 3.1875 C-8.98702966 -0.06300138 -5.21560648 -0.18177717 0 0 Z " fill="#54B49F" transform="translate(213.3125,28.8125)"/>
<path d="M0 0 C1.13598633 0.00483398 1.13598633 0.00483398 2.29492188 0.00976562 C3.47344727 0.02233398 3.47344727 0.02233398 4.67578125 0.03515625 C5.47306641 0.03966797 6.27035156 0.04417969 7.09179688 0.04882812 C9.05732382 0.06059775 11.0228121 0.07853277 12.98828125 0.09765625 C13.01716639 3.24347048 13.03504048 6.38925094 13.05078125 9.53515625 C13.05916016 10.43298828 13.06753906 11.33082031 13.07617188 12.25585938 C13.07939453 13.10986328 13.08261719 13.96386719 13.0859375 14.84375 C13.09117432 15.63450928 13.09641113 16.42526855 13.10180664 17.23999023 C12.98828125 19.09765625 12.98828125 19.09765625 11.98828125 20.09765625 C9.80188672 20.17024571 7.61327736 20.18139408 5.42578125 20.16015625 C3.62947266 20.14662109 3.62947266 20.14662109 1.796875 20.1328125 C0.87003906 20.12121094 -0.05679688 20.10960938 -1.01171875 20.09765625 C-1.03234375 21.39703125 -1.05296875 22.69640625 -1.07421875 24.03515625 C-1.08582031 24.76605469 -1.09742188 25.49695313 -1.109375 26.25 C-1.21733059 28.11497766 -1.21733059 28.11497766 -0.01171875 29.09765625 C2.15444707 29.14424046 4.32194217 29.13533171 6.48828125 29.09765625 C8.65462033 29.05998079 10.82211543 29.05107204 12.98828125 29.09765625 C13.98828125 30.09765625 13.98828125 30.09765625 14.10180664 32.04711914 C14.09395142 33.29609985 14.09395142 33.29609985 14.0859375 34.5703125 C14.08110352 35.91899414 14.08110352 35.91899414 14.07617188 37.29492188 C14.06360352 38.71321289 14.06360352 38.71321289 14.05078125 40.16015625 C14.04626953 41.10955078 14.04175781 42.05894531 14.03710938 43.03710938 C14.02528253 45.39065156 14.00734646 47.74416157 13.98828125 50.09765625 C7.71828125 50.42765625 1.44828125 50.75765625 -5.01171875 51.09765625 C-4.76421875 53.01578125 -4.51671875 54.93390625 -4.26171875 56.91015625 C-3.83984375 60.1796875 -3.83984375 60.1796875 -4.01171875 63.09765625 C-6.22130956 65.35456164 -7.4471738 66.01503992 -10.57421875 66.47265625 C-13.52422461 66.01880919 -14.23327917 65.45524186 -16.01171875 63.09765625 C-16.26953125 60.65234375 -16.26953125 60.65234375 -16.13671875 57.97265625 C-16.06611006 56.3486564 -16.017545 54.72317991 -16.01171875 53.09765625 C-17.19596201 51.68188148 -17.19596201 51.68188148 -20.57421875 52.03515625 C-22.05344537 52.05117675 -23.53262369 52.07224225 -25.01171875 52.09765625 C-27.68461033 52.14358222 -30.33741785 52.14457381 -33.01171875 52.09765625 C-35.10742822 50.00194678 -34.38410774 45.56921455 -34.51171875 42.66015625 C-34.52109536 37.21261482 -34.52109536 37.21261482 -36.01171875 32.09765625 C-39.38876072 32.01528937 -42.47270002 32.16566988 -45.82421875 32.66015625 C-46.87609375 32.80453125 -47.92796875 32.94890625 -49.01171875 33.09765625 C-50.01171875 32.09765625 -50.01171875 32.09765625 -50.14453125 30.28515625 C-50.14195312 29.56328125 -50.139375 28.84140625 -50.13671875 28.09765625 C-50.13929688 27.37578125 -50.141875 26.65390625 -50.14453125 25.91015625 C-50.01171875 24.09765625 -50.01171875 24.09765625 -49.01171875 23.09765625 C-45.90358619 23.0253741 -42.80745003 23.10151038 -39.69921875 23.16015625 C-37.09289075 23.40898683 -37.09289075 23.40898683 -36.01171875 22.09765625 C-35.92502443 20.60893765 -35.90468381 19.11621125 -35.9140625 17.625 C-35.91728516 16.72587891 -35.92050781 15.82675781 -35.92382812 14.90039062 C-35.93220703 13.95486328 -35.94058594 13.00933594 -35.94921875 12.03515625 C-35.95373047 11.08576172 -35.95824219 10.13636719 -35.96289062 9.15820312 C-35.97471765 6.8046256 -35.9911985 4.45117148 -36.01171875 2.09765625 C-31.82506674 1.44041916 -27.81229924 0.97710035 -23.57421875 1.03515625 C-22.27677734 1.04869141 -22.27677734 1.04869141 -20.953125 1.0625 C-20.31246094 1.07410156 -19.67179687 1.08570312 -19.01171875 1.09765625 C-18.22514637 4.24394578 -17.96531692 7.12272876 -18.01171875 10.34765625 C-18.01171875 11.58515625 -18.01171875 12.82265625 -18.01171875 14.09765625 C-17.00702252 15.32217405 -17.00702252 15.32217405 -14.98046875 15.23046875 C-14.16578125 15.22789063 -13.35109375 15.2253125 -12.51171875 15.22265625 C-11.69703125 15.22523437 -10.88234375 15.2278125 -10.04296875 15.23046875 C-8.01641498 15.32217405 -8.01641498 15.32217405 -7.01171875 14.09765625 C-6.93912929 11.91126172 -6.92798092 9.72265236 -6.94921875 7.53515625 C-6.95824219 6.33761719 -6.96726563 5.14007813 -6.9765625 3.90625 C-6.98816406 2.97941406 -6.99976563 2.05257812 -7.01171875 1.09765625 C-4.30455633 0.19526878 -2.77395107 -0.02085677 0 0 Z " fill="#FACF09" transform="translate(211.01171875,80.90234375)"/>
<path d="M0 0 C5.28 0 10.56 0 16 0 C16 2.31 16 4.62 16 7 C13.36 7 10.72 7 8 7 C8 8.32 8 9.64 8 11 C9.65 11 11.3 11 13 11 C13 12.98 13 14.96 13 17 C11.35 17 9.7 17 8 17 C8 18.32 8 19.64 8 21 C9.299375 20.979375 10.59875 20.95875 11.9375 20.9375 C13.29165633 20.91600546 14.64756083 20.92851801 16 21 C16.33 21.33 16.66 21.66 17 22 C18.98 14.74 20.96 7.48 23 0 C26.96 0 30.92 0 35 0 C36.00575752 3.91527036 37.00482039 7.83204064 38 11.75 C38.28617188 12.86117187 38.57234375 13.97234375 38.8671875 15.1171875 C39.13789063 16.18710938 39.40859375 17.25703125 39.6875 18.359375 C40.06455078 19.83615723 40.06455078 19.83615723 40.44921875 21.34277344 C41 24 41 24 41 28 C38.36 28 35.72 28 33 28 C32.505 25.03 32.505 25.03 32 22 C29.69 22 27.38 22 25 22 C24.34 23.98 23.68 25.96 23 28 C15.41 28 7.82 28 0 28 C0 18.76 0 9.52 0 0 Z " fill="#737373" transform="translate(208,149)"/>
<path d="M0 0 C3.47306921 2.55164268 5.32406456 5.08705508 7 9 C7.85123419 14.98074928 6.93110813 19.76587834 4 25 C0.13099375 28.63038912 -3.18608902 28.55267433 -8.296875 28.4296875 C-12.50628945 27.76056093 -14.17179955 26.12590576 -17 23 C-19.33274924 18.33450152 -18.52866637 12.06255514 -18 7 C-14.39188178 -0.66051965 -7.59518099 -0.98781256 0 0 Z " fill="#727272" transform="translate(94,149)"/>
<path d="M0 0 C3.89317236 1.40816872 4.75772626 2.57393239 6.8125 6.1875 C9.02174108 13.28032664 8.51947776 17.85405621 5.265625 24.3359375 C3.17890413 27.07958901 0.98286112 27.84592111 -2.3671875 28.37109375 C-6.791729 28.48825451 -10.01062707 28.54275862 -13.5625 25.6875 C-17.80896816 21.00549664 -17.38643378 16.25152478 -17.359375 10.18359375 C-16.83811417 5.56590268 -15.47652067 3.97987486 -12 1 C-8.30514298 -0.84742851 -4.04130195 -0.33783754 0 0 Z " fill="#717171" transform="translate(151,149)"/>
<path d="M0 0 C2.97 0 5.94 0 9 0 C9.33 1.98 9.66 3.96 10 6 C10.99 4.02 11.98 2.04 13 0 C15.97 0 18.94 0 22 0 C20.50111257 4.99629144 18.38829052 9.38263833 16 14 C18.31 17.3 20.62 20.6 23 24 C19 28 19 28 16.25 28.25 C15.5075 28.1675 14.765 28.085 14 28 C12.68 25.36 11.36 22.72 10 20 C9.67 22.64 9.34 25.28 9 28 C6.03 28 3.06 28 0 28 C0 18.76 0 9.52 0 0 Z " fill="#757575" transform="translate(250,149)"/>
<path d="M0 0 C13 0 13 0 18 3 C19.73561969 6.47123937 19.45883955 10.20474145 19 14 C17.4375 17 17.4375 17 15 19 C11.25 19.8125 11.25 19.8125 8 20 C8 22.64 8 25.28 8 28 C5.36 28 2.72 28 0 28 C0 18.76 0 9.52 0 0 Z " fill="#707070" transform="translate(186,149)"/>
<path d="M0 0 C0.66 0.33 1.32 0.66 2 1 C1.67 2.98 1.34 4.96 1 7 C-2.28976808 8.09658936 -3.71303767 7.79953138 -7 7 C-5.06261245 9.15265284 -3.45282505 10.30641797 -0.875 11.75 C2 14 2 14 3.0625 17.4375 C2.97661592 22.33289279 1.38545322 24.61454678 -2 28 C-4.49609375 28.265625 -4.49609375 28.265625 -7.4375 28.25 C-8.88962891 28.25773437 -8.88962891 28.25773437 -10.37109375 28.265625 C-13 28 -13 28 -16 26 C-16.1875 22.875 -16.1875 22.875 -16 20 C-12.06329512 18.68776504 -9.87511856 19.75703744 -6 21 C-7.78170566 19.12452035 -9.58297759 17.54194618 -11.625 15.9375 C-14 14 -14 14 -15 12 C-15.68571429 4.91428571 -15.68571429 4.91428571 -13.125 1.5 C-8.75729198 -0.59649985 -4.77108052 -0.51510781 0 0 Z " fill="#707070" transform="translate(182,149)"/>
<path d="M0 0 C5.28 0 10.56 0 16 0 C16 2.31 16 4.62 16 7 C13.36 7 10.72 7 8 7 C8 8.32 8 9.64 8 11 C9.65 11 11.3 11 13 11 C13 12.98 13 14.96 13 17 C11.35 17 9.7 17 8 17 C8 18.32 8 19.64 8 21 C10.64 21 13.28 21 16 21 C15.67 23.31 15.34 25.62 15 28 C10.05 28 5.1 28 0 28 C0 18.76 0 9.52 0 0 Z " fill="#6F6F70" transform="translate(208,149)"/>
<path d="M0 0 C0.99 0.66 1.98 1.32 3 2 C2.67 3.65 2.34 5.3 2 7 C-1 8 -1 8 -3.625 8.5 C-5.94461452 8.76252526 -5.94461452 8.76252526 -7 10 C-7.16053815 11.87321948 -7.16053815 11.87321948 -7.125 14 C-7.12757812 14.721875 -7.13015625 15.44375 -7.1328125 16.1875 C-7.19695276 18.02089415 -7.19695276 18.02089415 -6 19 C-4.67218122 19.20604085 -3.33704105 19.3662959 -2 19.5 C1.88888889 19.88888889 1.88888889 19.88888889 3 21 C3.04080783 22.99958364 3.04254356 25.00045254 3 27 C-0.72712158 28.86356079 -4.9420732 28.56549975 -9 28 C-12.62531608 26.1258346 -14.69121639 23.92635083 -16 20 C-16.1447963 18.04524991 -16.22067502 16.0848862 -16.25 14.125 C-16.28867187 12.58199219 -16.28867187 12.58199219 -16.328125 11.0078125 C-15.87178596 6.82470467 -14.14152889 4.27324377 -11.375 1.1875 C-7.73744757 -0.63127622 -3.9941544 -0.56639022 0 0 Z " fill="#707070" transform="translate(71,149)"/>
<path d="M0 0 C0.79921875 0.00644531 1.5984375 0.01289062 2.421875 0.01953125 C3.246875 0.03628906 4.071875 0.05304688 4.921875 0.0703125 C5.76234375 0.07933594 6.6028125 0.08835937 7.46875 0.09765625 C9.53658104 0.12115433 11.60426495 0.15702342 13.671875 0.1953125 C13.671875 0.8553125 13.671875 1.5153125 13.671875 2.1953125 C3.771875 2.6903125 3.771875 2.6903125 -6.328125 3.1953125 C-5.833125 5.1753125 -5.833125 5.1753125 -5.328125 7.1953125 C-5.21520995 8.73410831 -5.15352533 10.27743339 -5.140625 11.8203125 C-5.12644531 12.59632812 -5.11226562 13.37234375 -5.09765625 14.171875 C-5.328125 16.1953125 -5.328125 16.1953125 -7.328125 18.1953125 C-9.421875 18.4609375 -9.421875 18.4609375 -11.828125 18.4453125 C-12.6221875 18.45046875 -13.41625 18.455625 -14.234375 18.4609375 C-16.328125 18.1953125 -16.328125 18.1953125 -18.328125 16.1953125 C-18.60596043 12.18336884 -18.4137745 8.22083888 -18.328125 4.1953125 C-23.938125 4.1953125 -29.548125 4.1953125 -35.328125 4.1953125 C-35.080625 6.3609375 -35.080625 6.3609375 -34.828125 8.5703125 C-33.77312519 19.30378879 -33.77312519 19.30378879 -34.328125 24.1953125 C-36.328125 26.1953125 -36.328125 26.1953125 -39.1484375 26.390625 C-40.23898438 26.36742188 -41.32953125 26.34421875 -42.453125 26.3203125 C-43.54882812 26.30226563 -44.64453125 26.28421875 -45.7734375 26.265625 C-46.61648437 26.24242188 -47.45953125 26.21921875 -48.328125 26.1953125 C-48.328125 28.8353125 -48.328125 31.4753125 -48.328125 34.1953125 C-41.893125 33.7003125 -41.893125 33.7003125 -35.328125 33.1953125 C-33.22602643 36.34846035 -33.0846489 37.05634331 -33.1328125 40.64453125 C-33.13925781 41.49208984 -33.14570313 42.33964844 -33.15234375 43.21289062 C-33.16910156 44.09396484 -33.18585938 44.97503906 -33.203125 45.8828125 C-33.21214844 46.77548828 -33.22117188 47.66816406 -33.23046875 48.58789062 C-33.25402752 50.79063564 -33.28692171 52.99283838 -33.328125 55.1953125 C-33.988125 55.1953125 -34.648125 55.1953125 -35.328125 55.1953125 C-35.658125 48.9253125 -35.988125 42.6553125 -36.328125 36.1953125 C-40.86914062 36.73242188 -40.86914062 36.73242188 -45.41015625 37.26953125 C-48.328125 37.1953125 -48.328125 37.1953125 -50.1953125 36 C-51.62152783 33.72789144 -51.69778751 32.30186222 -51.640625 29.6328125 C-51.63675781 28.84777344 -51.63289062 28.06273438 -51.62890625 27.25390625 C-51.328125 25.1953125 -51.328125 25.1953125 -49.328125 23.1953125 C-46.2890625 23.21875 -46.2890625 23.21875 -42.703125 23.5703125 C-41.51460937 23.68117188 -40.32609375 23.79203125 -39.1015625 23.90625 C-38.18632812 24.00164062 -37.27109375 24.09703125 -36.328125 24.1953125 C-36.43640625 23.16083984 -36.43640625 23.16083984 -36.546875 22.10546875 C-38.15286727 5.84479704 -38.15286727 5.84479704 -36.328125 2.1953125 C-33.39107369 1.97376123 -30.45432137 1.76757053 -27.515625 1.5703125 C-26.68224609 1.50585938 -25.84886719 1.44140625 -24.99023438 1.375 C-23.78657227 1.29765625 -23.78657227 1.29765625 -22.55859375 1.21875 C-21.45100708 1.14019775 -21.45100708 1.14019775 -20.32104492 1.06005859 C-18.328125 1.1953125 -18.328125 1.1953125 -15.328125 3.1953125 C-15.658125 7.4853125 -15.988125 11.7753125 -16.328125 16.1953125 C-11.67759628 16.46463771 -11.67759628 16.46463771 -7.328125 15.1953125 C-7.658125 10.9053125 -7.988125 6.6153125 -8.328125 2.1953125 C-4.70316658 0.38283329 -3.7329544 -0.05332792 0 0 Z " fill="#213216" transform="translate(210.328125,78.8046875)"/>
<path d="M0 0 C2.27645169 1.30082954 2.84615552 2.50943931 3.62109375 4.98046875 C4.13279449 6.97433713 4.57094234 8.98672945 5 11 C4.01 11.33 3.02 11.66 2 12 C1.34 9.03 0.68 6.06 0 3 C-1.65 3 -3.3 3 -5 3 C-4.67 3.66 -4.34 4.32 -4 5 C-4.33 5.99 -4.66 6.98 -5 8 C-4.34 8.66 -3.68 9.32 -3 10 C-2.34 10.66 -1.68 11.32 -1 12 C-1.33746678 18.18689105 -1.33746678 18.18689105 -3.375 20.6875 C-4.179375 21.3371875 -4.179375 21.3371875 -5 22 C-5.474375 22.70125 -5.94875 23.4025 -6.4375 24.125 C-8.27487461 26.32984953 -9.22307579 26.56610559 -12 27 C-12.99 27.33 -13.98 27.66 -15 28 C-15.20158921 31.62860585 -15.02123249 33.94350209 -13 37 C-10.83718718 38.1225649 -10.83718718 38.1225649 -8.375 38.75 C-7.55773437 38.99234375 -6.74046875 39.2346875 -5.8984375 39.484375 C-5.27195312 39.65453125 -4.64546875 39.8246875 -4 40 C-4 39.34 -4 38.68 -4 38 C2.435 37.505 2.435 37.505 9 37 C10.38583211 41.15749634 10.39644889 44.8182017 9 49 C6.7662809 51.02481011 4.83341159 51.81511879 2 53 C2.33 56.63 2.66 60.26 3 64 C0.02551753 61.02551753 -1.42529201 58.85803457 -3 55 C-2.86328125 52.94921875 -2.86328125 52.94921875 -2 51 C0.06640625 49.734375 0.06640625 49.734375 2.5625 48.75 C3.38878906 48.41484375 4.21507813 48.0796875 5.06640625 47.734375 C5.70449219 47.49203125 6.34257813 47.2496875 7 47 C7.16687448 44.58354218 7.16687448 44.58354218 7 42 C5.12355493 39.68313634 5.12355493 39.68313634 2.0625 39.8125 C-1.04093079 39.87049768 -1.04093079 39.87049768 -4 41 C-5.20882096 43.00016466 -5.20882096 43.00016466 -6 45 C-8.58523109 44.62031163 -9.7665704 44.24427352 -11.59765625 42.328125 C-13.07855536 40.22722279 -14.55562114 38.12622251 -16 36 C-16.639375 35.113125 -17.27875 34.22625 -17.9375 33.3125 C-19 31 -19 31 -18.97265625 28.609375 C-17.57876085 24.86992871 -14.86130314 23.71806292 -11.5 21.9375 C-6.93208502 19.72267925 -6.93208502 19.72267925 -4.09375 15.75390625 C-4.0628125 15.17511719 -4.031875 14.59632812 -4 14 C-5.2065625 13.195625 -5.2065625 13.195625 -6.4375 12.375 C-9 10 -9 10 -10.0625 7 C-10 4 -10 4 -8.4375 1.625 C-5.3433886 -0.43774093 -3.65259739 -0.54400387 0 0 Z M-2 7 C-1.67 7.66 -1.34 8.32 -1 9 C-1.66 8.67 -2.32 8.34 -3 8 C-2.67 7.67 -2.34 7.34 -2 7 Z " fill="#E6675D" transform="translate(113,26)"/>
<path d="M0 0 C2.64 0 5.28 0 8 0 C8 6.6 8 13.2 8 20 C10.31 20 12.62 20 15 20 C15 22.64 15 25.28 15 28 C12.68756208 28.02685412 10.3750373 28.04632841 8.0625 28.0625 C6.77472656 28.07410156 5.48695312 28.08570313 4.16015625 28.09765625 C1 28 1 28 0 27 C-0.08758003 25.00035018 -0.10696576 22.9976389 -0.09765625 20.99609375 C-0.09443359 19.78115234 -0.09121094 18.56621094 -0.08789062 17.31445312 C-0.07951172 16.03505859 -0.07113281 14.75566406 -0.0625 13.4375 C-0.05798828 12.15423828 -0.05347656 10.87097656 -0.04882812 9.54882812 C-0.03699545 6.36583978 -0.02051068 3.18294238 0 0 Z " fill="#6F6F6F" transform="translate(118,149)"/>
<path d="M0 0 C2.64 0 5.28 0 8 0 C8 6.6 8 13.2 8 20 C10.31 20 12.62 20 15 20 C15 22.64 15 25.28 15 28 C12.68756208 28.02685412 10.3750373 28.04632841 8.0625 28.0625 C6.77472656 28.07410156 5.48695312 28.08570313 4.16015625 28.09765625 C1 28 1 28 0 27 C-0.08758003 25.00035018 -0.10696576 22.9976389 -0.09765625 20.99609375 C-0.09443359 19.78115234 -0.09121094 18.56621094 -0.08789062 17.31445312 C-0.07951172 16.03505859 -0.07113281 14.75566406 -0.0625 13.4375 C-0.05798828 12.15423828 -0.05347656 10.87097656 -0.04882812 9.54882812 C-0.03699545 6.36583978 -0.02051068 3.18294238 0 0 Z " fill="#6F6F6F" transform="translate(102,149)"/>
<path d="M0 0 C1.50433594 0.01353516 1.50433594 0.01353516 3.0390625 0.02734375 C3.80992188 0.03894531 4.58078125 0.05054688 5.375 0.0625 C5.705 0.7225 6.035 1.3825 6.375 2.0625 C5.715 2.0625 5.055 2.0625 4.375 2.0625 C3.68792445 4.55314888 3.375 6.44136292 3.375 9.0625 C1.065 8.7325 -1.245 8.4025 -3.625 8.0625 C-3.625 12.0225 -3.625 15.9825 -3.625 20.0625 C-4.615 20.0625 -5.605 20.0625 -6.625 20.0625 C-6.955 22.0425 -7.285 24.0225 -7.625 26.0625 C-10.1383064 24.42885084 -11.18217972 23.63470029 -12.625 21.0625 C-13.46650789 15.69626894 -13.96904193 9.85929313 -11.5625 4.8515625 C-7.99273571 0.49560013 -5.37607956 -0.06251255 0 0 Z " fill="#717171" transform="translate(88.625,148.9375)"/>
<path d="M0 0 C0.495 0.515625 0.99 1.03125 1.5 1.5625 C3.01472806 3.34595268 3.01472806 3.34595268 6 3 C6.66 4.32 7.32 5.64 8 7 C7.34 7 6.68 7 6 7 C6 7.66 6 8.32 6 9 C6.99 9.33 7.98 9.66 9 10 C8.34 10 7.68 10 7 10 C7 10.66 7 11.32 7 12 C2.63497158 14.04610707 -1.21525483 14.76848007 -6 15 C-8.15322835 13.45627016 -8.88401772 12.38336658 -9.65234375 9.84375 C-9.9362805 7.51002327 -10.15333077 5.3481512 -10 3 C-7.13362512 -0.27585701 -4.17794968 -1.39264989 0 0 Z " fill="#F3594B" transform="translate(124,76)"/>
<path d="M0 0 C13.62135388 -0.4127683 13.62135388 -0.4127683 18 3 C18.8125 5.6875 18.8125 5.6875 19 8 C18.67 7.34 18.34 6.68 18 6 C17.01 6.66 16.02 7.32 15 8 C14.01 8 13.02 8 12 8 C12 9.32 12 10.64 12 12 C10.35 12.33 8.7 12.66 7 13 C5 10 5 10 4 7 C3.34 7 2.68 7 2 7 C1.67 11.95 1.34 16.9 1 22 C0.67 22 0.34 22 0 22 C0 14.74 0 7.48 0 0 Z " fill="#737174" transform="translate(186,149)"/>
<path d="M0 0 C0.33 0 0.66 0 1 0 C1.87803974 5.92676823 2.65653817 12.0132621 2 18 C0 20 0 20 -2.8203125 20.1953125 C-3.91085938 20.17210938 -5.00140625 20.14890625 -6.125 20.125 C-7.22070312 20.10695313 -8.31640625 20.08890625 -9.4453125 20.0703125 C-10.28835937 20.04710938 -11.13140625 20.02390625 -12 20 C-12 22.64 -12 25.28 -12 28 C-5.565 27.505 -5.565 27.505 1 27 C3.10209857 30.15314785 3.2434761 30.86103081 3.1953125 34.44921875 C3.18886719 35.29677734 3.18242187 36.14433594 3.17578125 37.01757812 C3.15902344 37.89865234 3.14226562 38.77972656 3.125 39.6875 C3.11597656 40.58017578 3.10695312 41.47285156 3.09765625 42.39257812 C3.07409748 44.59532314 3.04120329 46.79752588 3 49 C2.34 49 1.68 49 1 49 C0.67 42.73 0.34 36.46 0 30 C-3.02734375 30.35807292 -6.0546875 30.71614583 -9.08203125 31.07421875 C-12 31 -12 31 -13.8671875 29.8046875 C-15.29340283 27.53257894 -15.36966251 26.10654972 -15.3125 23.4375 C-15.30863281 22.65246094 -15.30476562 21.86742188 -15.30078125 21.05859375 C-15 19 -15 19 -13 17 C-9.9609375 17.0234375 -9.9609375 17.0234375 -6.375 17.375 C-5.18648437 17.48585938 -3.99796875 17.59671875 -2.7734375 17.7109375 C-1.85820312 17.80632812 -0.94296875 17.90171875 0 18 C-0.08378906 17.11957031 -0.16757813 16.23914063 -0.25390625 15.33203125 C-0.35574219 14.17058594 -0.45757812 13.00914063 -0.5625 11.8125 C-0.66691406 10.66394531 -0.77132812 9.51539062 -0.87890625 8.33203125 C-0.98859985 5.31368801 -0.74002389 2.91076064 0 0 Z " fill="#282B12" transform="translate(174,85)"/>
<path d="M0 0 C2.64 0 5.28 0 8 0 C7.401875 0.28875 6.80375 0.5775 6.1875 0.875 C3.80672208 2.04742026 3.80672208 2.04742026 1 4 C0.24862832 6.8707236 0.24862832 6.8707236 1 10 C2.83688211 12.04985395 4.72888726 13.39129514 7 15 C5.61415403 19.15753791 2.69360927 20.3793089 -0.875 22.5625 C-2.14323153 23.35546497 -3.41146078 24.14843359 -4.6796875 24.94140625 C-6.32324219 25.96041016 -6.32324219 25.96041016 -8 27 C-8.99 27.66 -9.98 28.32 -11 29 C-15 24.25 -15 24.25 -15 22 C-13.35 22 -11.7 22 -10 22 C-10 21.67 -10 21.34 -10 21 C-8.63875 21.0309375 -8.63875 21.0309375 -7.25 21.0625 C-4.57327412 21.0110245 -2.53011948 20.7784983 0 20 C-0.165 19.21625 -0.33 18.4325 -0.5 17.625 C-1 15 -1 15 -1 13 C-1.33 12.34 -1.66 11.68 -2 11 C-2.23553948 6.76028942 -2.32845886 3.63821698 0 0 Z " fill="#E76054" transform="translate(131,68)"/>
<path d="M0 0 C0.36098063 1.97793521 0.71361348 3.95739573 1.0625 5.9375 C1.25972656 7.03964844 1.45695313 8.14179687 1.66015625 9.27734375 C1.77230469 10.17582031 1.88445312 11.07429688 2 12 C1 13 1 13 -1.1875 13.375 C-5.34913487 12.82011535 -7.17416159 11.02298993 -10 8 C-10.625 4.875 -10.625 4.875 -10 2 C-6.86938807 -1.73265269 -4.45528622 -0.88495411 0 0 Z " fill="#FBFBF9" transform="translate(141,70)"/>
<path d="M0 0 C2.875 0.5 2.875 0.5 4.75 1.5625 C6.53735303 4.64071911 6.30886742 7.02906068 5.875 10.5 C4.1875 12.4375 4.1875 12.4375 1.875 13.5 C-0.875 13.6875 -0.875 13.6875 -3.125 13.5 C-3.125 12.51 -3.125 11.52 -3.125 10.5 C-1.805 10.83 -0.485 11.16 0.875 11.5 C0.71 10.88125 0.545 10.2625 0.375 9.625 C-0.125 7.5 -0.125 7.5 -0.125 5.5 C-0.785 5.17 -1.445 4.84 -2.125 4.5 C-4.9089183 5.89195915 -5.10398997 7.65575779 -6.125 10.5 C-7.115 10.17 -8.105 9.84 -9.125 9.5 C-9.125 8.84 -9.125 8.18 -9.125 7.5 C-10.445 7.17 -11.765 6.84 -13.125 6.5 C-13.455 5.18 -13.785 3.86 -14.125 2.5 C-13.4753125 3.2425 -13.4753125 3.2425 -12.8125 4 C-11.12759517 5.83218192 -11.12759517 5.83218192 -8.125 5.5 C-7.361875 4.675 -6.59875 3.85 -5.8125 3 C-3.125 0.5 -3.125 0.5 0 0 Z " fill="#E96056" transform="translate(157.125,36.5)"/>
<path d="M0 0 C1.9375 0.875 1.9375 0.875 3.9375 3.875 C3.953673 6.64597485 3.42513555 9.12650873 2.9375 11.875 C1.9375 12.875 1.9375 12.875 -1.125 12.9375 C-2.094375 12.916875 -3.06375 12.89625 -4.0625 12.875 C-5.6534108 9.6931784 -5.45834434 6.33863796 -5.0625 2.875 C-3.52870191 0.34423314 -2.96078959 -0.17944179 0 0 Z " fill="#F5F5F5" transform="translate(89.0625,156.125)"/>
<path d="M0 0 C1.9375 0.875 1.9375 0.875 3.9375 3.875 C4.27707563 7.94990752 4.25082486 9.40501271 1.9375 12.875 C-0.5625 13.1875 -0.5625 13.1875 -3.0625 12.875 C-5.0625 10.875 -5.0625 10.875 -5.375 6.9375 C-5.30258358 4.28223143 -5.20891341 3.11658213 -3.8125 0.8125 C-2.0625 -0.125 -2.0625 -0.125 0 0 Z " fill="#F5F5F5" transform="translate(147.0625,156.125)"/>
<path d="M0 0 C0.33 0 0.66 0 1 0 C1.33 1.98 1.66 3.96 2 6 C2.99 4.02 3.98 2.04 5 0 C7.97 0 10.94 0 14 0 C11.97247706 7.01834862 11.97247706 7.01834862 9 9 C7.33333333 9 5.66666667 9 4 9 C2.68 9.99 1.36 10.98 0 12 C0 8.04 0 4.08 0 0 Z " fill="#7C7C7C" transform="translate(258,149)"/>
<path d="M0 0 C1.66611905 -0.042721 3.33382885 -0.04063832 5 0 C6.8855253 1.8855253 6.13246689 4.57768831 6.13671875 7.08203125 C6.13285156 7.87996094 6.12898438 8.67789063 6.125 9.5 C6.13080078 10.69689453 6.13080078 10.69689453 6.13671875 11.91796875 C6.12660767 17.87339233 6.12660767 17.87339233 5 19 C1.84826437 19.37850908 -1.33026242 19.46948618 -4.5 19.625 C-5.39332031 19.6765625 -6.28664062 19.728125 -7.20703125 19.78125 C-8.05652344 19.82507813 -8.90601563 19.86890625 -9.78125 19.9140625 C-10.56564453 19.9548291 -11.35003906 19.9955957 -12.15820312 20.03759766 C-14 20 -14 20 -15 19 C-14.91036938 17.30858344 -14.75422324 15.62040398 -14.5625 13.9375 C-14.46066406 13.01839844 -14.35882813 12.09929687 -14.25390625 11.15234375 C-14.17011719 10.44207031 -14.08632812 9.73179688 -14 9 C-13.34 9 -12.68 9 -12 9 C-12.33 11.97 -12.66 14.94 -13 18 C-11.10388566 17.85786703 -9.20811606 17.71113093 -7.3125 17.5625 C-6.25675781 17.48128906 -5.20101562 17.40007812 -4.11328125 17.31640625 C-0.66594348 17.01635775 -0.66594348 17.01635775 4 16 C4 11.05 4 6.1 4 1 C2.68 0.67 1.36 0.34 0 0 Z " fill="#5582B2" transform="translate(169,114)"/>
<path d="M0 0 C0.33 0 0.66 0 1 0 C1.95261487 4.76307437 2.08333357 9.1666528 2 14 C3.57201172 13.83951172 3.57201172 13.83951172 5.17578125 13.67578125 C6.55461314 13.55384374 7.93352396 13.43279635 9.3125 13.3125 C10.34793945 13.20325195 10.34793945 13.20325195 11.40429688 13.09179688 C16.44512697 12.67781566 16.44512697 12.67781566 18.9375 14.125 C20.3795344 16.66976659 20.51635036 18.77795615 20.6875 21.6875 C20.78611328 23.17830078 20.78611328 23.17830078 20.88671875 24.69921875 C20.92410156 25.45847656 20.96148437 26.21773437 21 27 C23.33317216 27.77772405 25.61435923 28.42415568 28 29 C24.6875 29.6875 24.6875 29.6875 21 30 C19.27734375 28.83984375 19.27734375 28.83984375 18 27 C17.7421875 24.5546875 17.7421875 24.5546875 17.875 21.875 C17.94560869 20.25100015 17.99417375 18.62552366 18 17 C16.81575674 15.58422523 16.81575674 15.58422523 13.4375 15.9375 C11.95827338 15.9535205 10.47909506 15.974586 9 16 C6.32710842 16.04592597 3.6743009 16.04691756 1 16 C0 15 0 15 -0.09765625 11.62109375 C-0.09098369 10.22652923 -0.07902532 8.83198257 -0.0625 7.4375 C-0.05798828 6.72658203 -0.05347656 6.01566406 -0.04882812 5.28320312 C-0.03700864 3.52209987 -0.01907263 1.76103964 0 0 Z " fill="#F2D134" transform="translate(177,117)"/>
<path d="M0 0 C3.3 0 6.6 0 10 0 C9.67 0.99 9.34 1.98 9 3 C9.66 3 10.32 3 11 3 C11 12.24 11 21.48 11 31 C10.67 31 10.34 31 10 31 C9.67 25.72 9.34 20.44 9 15 C8.67 15 8.34 15 8 15 C7.90203125 14.37351563 7.8040625 13.74703125 7.703125 13.1015625 C7.55359375 12.28429687 7.4040625 11.46703125 7.25 10.625 C7.11078125 9.81289062 6.9715625 9.00078125 6.828125 8.1640625 C6.18250739 5.82290908 6.18250739 5.82290908 3.921875 4.7109375 C3.28765625 4.47632813 2.6534375 4.24171875 2 4 C2 3.34 2 2.68 2 2 C1.34 2 0.68 2 0 2 C0 1.34 0 0.68 0 0 Z " fill="#EBEAE0" transform="translate(197,146)"/>
<path d="M0 0 C1.32 0 2.64 0 4 0 C3.42415568 2.38564077 2.77772405 4.66682784 2 7 C-0.109375 8.09765625 -0.109375 8.09765625 -2.75 9.0625 C-3.61109375 9.38347656 -4.4721875 9.70445313 -5.359375 10.03515625 C-6.23078125 10.35355469 -7.1021875 10.67195313 -8 11 C-8.87140625 11.39058594 -9.7428125 11.78117187 -10.640625 12.18359375 C-13 13 -13 13 -16 12 C-14.43902526 10.8936781 -12.87614673 9.79004215 -11.3125 8.6875 C-10.44238281 8.07261719 -9.57226562 7.45773438 -8.67578125 6.82421875 C-6 5 -6 5 -3.23046875 3.39453125 C-0.8800692 2.19456815 -0.8800692 2.19456815 0 0 Z " fill="#4577AC" transform="translate(138,83)"/>
<path d="M0 0 C1.45792884 -0.05399736 2.91642712 -0.09279177 4.375 -0.125 C5.18710938 -0.14820312 5.99921875 -0.17140625 6.8359375 -0.1953125 C9 0 9 0 11 2 C12.15387027 8.34628646 12.08048919 14.5608646 12 21 C7.38 21 2.76 21 -2 21 C-2.33 20.01 -2.66 19.02 -3 18 C0.96 18 4.92 18 9 18 C9.020625 16.288125 9.04125 14.57625 9.0625 12.8125 C9.07410156 11.84957031 9.08570313 10.88664062 9.09765625 9.89453125 C9.00486622 7.14423487 8.62111685 4.67520409 8 2 C5.36 1.67 2.72 1.34 0 1 C0 0.67 0 0.34 0 0 Z " fill="#5E85A2" transform="translate(162,82)"/>
<path d="M0 0 C2.80870625 1.16628183 3.41709001 2.61990502 4.80078125 5.2890625 C5.22875 6.09214844 5.65671875 6.89523438 6.09765625 7.72265625 C7.05078125 9.8515625 7.05078125 9.8515625 7.05078125 11.8515625 C6.39078125 11.8515625 5.73078125 11.8515625 5.05078125 11.8515625 C4.72078125 10.8615625 4.39078125 9.8715625 4.05078125 8.8515625 C2.73078125 9.8415625 1.41078125 10.8315625 0.05078125 11.8515625 C0.05078125 10.2015625 0.05078125 8.5515625 0.05078125 6.8515625 C-0.93921875 6.8515625 -1.92921875 6.8515625 -2.94921875 6.8515625 C-2.94921875 6.1915625 -2.94921875 5.5315625 -2.94921875 4.8515625 C-3.93921875 5.5115625 -4.92921875 6.1715625 -5.94921875 6.8515625 C-8.63671875 6.9765625 -8.63671875 6.9765625 -10.94921875 6.8515625 C-9.28706607 5.51260618 -7.61958268 4.18026108 -5.94921875 2.8515625 C-5.26859375 2.2534375 -4.58796875 1.6553125 -3.88671875 1.0390625 C-1.94921875 -0.1484375 -1.94921875 -0.1484375 0 0 Z " fill="#ED5E52" transform="translate(135.94921875,27.1484375)"/>
<path d="M0 0 C0.66 0 1.32 0 2 0 C2 2.97 2 5.94 2 9 C-2.00329408 11.00164704 -2.61626774 11.21524302 -6.6875 10.5625 C-8.11996523 10.33977627 -9.55743113 10.14337906 -11 10 C-11.33 10.33 -11.66 10.66 -12 11 C-12 12.65 -12 14.3 -12 16 C-8.04 16.33 -4.08 16.66 0 17 C-2.45886984 19.45886984 -4.54489642 19.80565072 -7.953125 20.16015625 C-10 20 -10 20 -13.0625 17.875 C-15 15 -15 15 -14.9375 12.3125 C-14 10 -14 10 -12 8 C-9.1796875 7.8046875 -9.1796875 7.8046875 -5.875 7.875 C-4.77929688 7.89304687 -3.68359375 7.91109375 -2.5546875 7.9296875 C-1.71164063 7.95289062 -0.86859375 7.97609375 0 8 C0 5.36 0 2.72 0 0 Z " fill="#527FB5" transform="translate(122,96)"/>
<path d="M0 0 C0.33 0 0.66 0 1 0 C1.87803974 5.92676823 2.65653817 12.0132621 2 18 C0 20 0 20 -2.8203125 20.1953125 C-3.91085938 20.17210938 -5.00140625 20.14890625 -6.125 20.125 C-7.22070312 20.10695313 -8.31640625 20.08890625 -9.4453125 20.0703125 C-10.28835937 20.04710938 -11.13140625 20.02390625 -12 20 C-12.33 21.98 -12.66 23.96 -13 26 C-13.33 26 -13.66 26 -14 26 C-14.625 22.625 -14.625 22.625 -15 19 C-14.34 18.34 -13.68 17.68 -13 17 C-9.9609375 17.0234375 -9.9609375 17.0234375 -6.375 17.375 C-5.18648437 17.48585938 -3.99796875 17.59671875 -2.7734375 17.7109375 C-1.85820312 17.80632812 -0.94296875 17.90171875 0 18 C-0.08378906 17.11957031 -0.16757813 16.23914063 -0.25390625 15.33203125 C-0.35574219 14.17058594 -0.45757812 13.00914063 -0.5625 11.8125 C-0.66691406 10.66394531 -0.77132812 9.51539062 -0.87890625 8.33203125 C-0.98859985 5.31368801 -0.74002389 2.91076064 0 0 Z " fill="#3A320A" transform="translate(174,85)"/>
<path d="M0 0 C6.45280438 0.4870041 6.45280438 0.4870041 9 2.875 C10 5 10 5 9 8 C9 7.34 9 6.68 9 6 C8.01 6.66 7.02 7.32 6 8 C5.01 8 4.02 8 3 8 C3 9.32 3 10.64 3 12 C1.68 12.33 0.36 12.66 -1 13 C-1 11.02 -1 9.04 -1 7 C0.98 6.34 2.96 5.68 5 5 C3.7625 4.319375 3.7625 4.319375 2.5 3.625 C1.675 3.08875 0.85 2.5525 0 2 C0 1.34 0 0.68 0 0 Z " fill="#797977" transform="translate(195,149)"/>
<path d="M0 0 C0.66 0 1.32 0 2 0 C2 6.27 2 12.54 2 19 C4.3925 18.855625 6.785 18.71125 9.25 18.5625 C9.99668945 18.51939697 10.74337891 18.47629395 11.51269531 18.43188477 C14.77672382 18.22426165 17.86545184 17.96136915 21 17 C21.33 15.68 21.66 14.36 22 13 C22.33 14.65 22.66 16.3 23 18 C20.08175756 19.66674321 18.02405621 20.2432008 14.671875 20.1953125 C13.9509668 20.19031738 13.23005859 20.18532227 12.48730469 20.18017578 C11.58399414 20.16196777 10.68068359 20.14375977 9.75 20.125 C5.41875 20.063125 5.41875 20.063125 1 20 C0.67 13.4 0.34 6.8 0 0 Z " fill="#487CB3" transform="translate(123,115)"/>
<path d="M0 0 C0.33 0 0.66 0 1 0 C1.33 6.27 1.66 12.54 2 19 C1.34 18.67 0.68 18.34 0 18 C-1.37548156 17.91691362 -2.75485796 17.89263984 -4.1328125 17.90234375 C-4.93847656 17.90556641 -5.74414062 17.90878906 -6.57421875 17.91210938 C-7.41597656 17.92048828 -8.25773438 17.92886719 -9.125 17.9375 C-10.39923828 17.94426758 -10.39923828 17.94426758 -11.69921875 17.95117188 C-13.79950909 17.96297126 -15.8997633 17.98090694 -18 18 C-18.33 17.34 -18.66 16.68 -19 16 C-13.2691325 14.16207027 -6.92309564 14.94515652 -1 15 C-0.67 10.05 -0.34 5.1 0 0 Z " fill="#D5F0F0" transform="translate(171,65)"/>
<path d="M0 0 C0.33 0 0.66 0 1 0 C1.375 3.1875 1.375 3.1875 1 7 C-0.96185416 8.71140469 -2.96302383 10.37873325 -5 12 C-5.96298724 15.17562802 -5.96298724 15.17562802 -6 18 C-8.89932357 15.60490662 -9.50168276 13.68754757 -10 10 C-9.36191406 9.78085937 -8.72382813 9.56171875 -8.06640625 9.3359375 C-5.55695588 8.3728723 -3.28375825 7.42196269 -1 6 C0.21790719 2.883975 0.21790719 2.883975 0 0 Z " fill="#FCE2DD" transform="translate(163,41)"/>
<path d="M0 0 C0.89460937 -0.00128906 1.78921875 -0.00257812 2.7109375 -0.00390625 C3.65195313 -0.00003906 4.59296875 0.00382812 5.5625 0.0078125 C6.97402344 0.00201172 6.97402344 0.00201172 8.4140625 -0.00390625 C9.75597656 -0.00197266 9.75597656 -0.00197266 11.125 0 C11.95128906 0.00112793 12.77757812 0.00225586 13.62890625 0.00341797 C15.5625 0.1328125 15.5625 0.1328125 16.5625 1.1328125 C16.47265699 2.99053412 16.31638139 4.84529235 16.125 6.6953125 C16.02316406 7.70722656 15.92132813 8.71914063 15.81640625 9.76171875 C15.73261719 10.54417969 15.64882812 11.32664062 15.5625 12.1328125 C15.2325 12.1328125 14.9025 12.1328125 14.5625 12.1328125 C13.4375 4.5078125 13.4375 4.5078125 14.5625 1.1328125 C8.6225 1.4628125 2.6825 1.7928125 -3.4375 2.1328125 C-3.7675 4.7728125 -4.0975 7.4128125 -4.4375 10.1328125 C-4.7675 10.1328125 -5.0975 10.1328125 -5.4375 10.1328125 C-5.46439216 8.65374358 -5.48384621 7.17453767 -5.5 5.6953125 C-5.51160156 4.87160156 -5.52320313 4.04789063 -5.53515625 3.19921875 C-5.35316192 -0.65178137 -3.35168319 0.00457523 0 0 Z " fill="#68B0A0" transform="translate(175.4375,30.8671875)"/>
<path d="M0 0 C2.62386487 3.06117568 3 3.73173127 3 8 C5.64 7.67 8.28 7.34 11 7 C11.33 8.65 11.66 10.3 12 12 C8.53058454 11.54177532 5.32604951 11.10868317 2 10 C-0.28341107 6.75515269 -0.17615457 3.87540045 0 0 Z " fill="#6774A4" transform="translate(141,71)"/>
<path d="M0 0 C1.65 0.99 3.3 1.98 5 3 C4.875 4.75 4.875 4.75 4 7 C0.9375 9.25 0.9375 9.25 -2 11 C-2.33 10.34 -2.66 9.68 -3 9 C-2.34 9 -1.68 9 -1 9 C-1.020625 7.700625 -1.04125 6.40125 -1.0625 5.0625 C-1.08399454 3.70834367 -1.07148199 2.35243917 -1 1 C-0.67 0.67 -0.34 0.34 0 0 Z " fill="#FDF0EB" transform="translate(105,37)"/>
<path d="M0 0 C1.98 0 3.96 0 6 0 C5.49339844 0.84304687 5.49339844 0.84304687 4.9765625 1.703125 C3.8310942 4.39726644 3.9529974 5.88038233 4.375 8.75 C4.48585938 9.54921875 4.59671875 10.3484375 4.7109375 11.171875 C4.80632812 11.77515625 4.90171875 12.3784375 5 13 C2.1268033 10.28014807 0.50726941 7.69281006 -1 4 C-0.6875 1.625 -0.6875 1.625 0 0 Z " fill="#E36559" transform="translate(111,77)"/>
<path d="M0 0 C0.99 0.33 1.98 0.66 3 1 C0.54162318 2.72960899 -1.91947523 4.45492477 -4.38671875 6.171875 C-5.89961764 7.23022579 -7.40612185 8.29810181 -8.89453125 9.390625 C-10.4375 10.5 -10.4375 10.5 -13 12 C-13.99 11.67 -14.98 11.34 -16 11 C-13.54162318 9.27039101 -11.08052477 7.54507523 -8.61328125 5.828125 C-7.10038236 4.76977421 -5.59387815 3.70189819 -4.10546875 2.609375 C-2.5625 1.5 -2.5625 1.5 0 0 Z " fill="#271828" transform="translate(138,84)"/>
<path d="M0 0 C0.66 0 1.32 0 2 0 C1.50886719 0.76570313 1.50886719 0.76570313 1.0078125 1.546875 C-0.35648384 4.86772037 -0.1912273 7.67372568 -0.125 11.25 C-0.10695312 12.51328125 -0.08890625 13.7765625 -0.0703125 15.078125 C-0.04710937 16.04234375 -0.02390625 17.0065625 0 18 C1.65 18.33 3.3 18.66 5 19 C5 19.33 5 19.66 5 20 C3.35 20 1.7 20 0 20 C-0.33 20.66 -0.66 21.32 -1 22 C-3.2397148 19.7602852 -2.18531833 14.57102512 -2.1875 11.5625 C-2.19974609 10.67755859 -2.21199219 9.79261719 -2.22460938 8.88085938 C-2.22654297 8.03458984 -2.22847656 7.18832031 -2.23046875 6.31640625 C-2.23457764 5.53724854 -2.23868652 4.75809082 -2.24291992 3.95532227 C-2 2 -2 2 0 0 Z " fill="#68B3A1" transform="translate(174,61)"/>
<path d="M0 0 C5.37313433 -0.35820896 5.37313433 -0.35820896 7.75 1 C9.70888997 4.13422395 10.23167283 7.39477251 11 11 C10.01 11.33 9.02 11.66 8 12 C7.34 9.03 6.68 6.06 6 3 C3.69 2.67 1.38 2.34 -1 2 C-0.67 1.34 -0.34 0.68 0 0 Z " fill="#E46D66" transform="translate(107,26)"/>
<path d="M0 0 C0.33 2.31 0.66 4.62 1 7 C-1.475 6.01 -1.475 6.01 -4 5 C-4 5.66 -4 6.32 -4 7 C-4.99 6.67 -5.98 6.34 -7 6 C-6.75 4.125 -6.75 4.125 -6 2 C-3.85331506 0.61504198 -2.56128588 0 0 0 Z " fill="#6B6C6A" transform="translate(204,155)"/>
<path d="M0 0 C0.12375 0.639375 0.2475 1.27875 0.375 1.9375 C0.58125 2.618125 0.7875 3.29875 1 4 C1.66 4.33 2.32 4.66 3 5 C-1.62 5 -6.24 5 -11 5 C-11.33 4.01 -11.66 3.02 -12 2 C-8.04 2 -4.08 2 0 2 C0 1.34 0 0.68 0 0 Z " fill="#4773AB" transform="translate(171,98)"/>
<path d="M0 0 C1 1 1 1 1.25 3.875 C1 7 1 7 -0.5 8.875 C-0.995 9.24625 -1.49 9.6175 -2 10 C-1.814375 9.05125 -1.62875 8.1025 -1.4375 7.125 C-0.71313368 4.10131207 -0.71313368 4.10131207 -2 2 C-4.31 2 -6.62 2 -9 2 C-9.33 1.34 -9.66 0.68 -10 0 C-6.423475 -1.23802788 -3.65753437 -0.81278541 0 0 Z " fill="#70B6A5" transform="translate(237,49)"/>
<path d="M0 0 C0 0.33 0 0.66 0 1 C-2.31 1.66 -4.62 2.32 -7 3 C-7 5.31 -7 7.62 -7 10 C-7.99 9.34 -8.98 8.68 -10 8 C-10.4375 5.0625 -10.4375 5.0625 -10 2 C-6.92702006 -1.66393762 -4.38919352 -1.09729838 0 0 Z " fill="#FEE3DC" transform="translate(141,70)"/>
<path d="M0 0 C2.41527102 1.20763551 2.9183747 2.46621798 3.875 4.9375 C2.885 4.6075 1.895 4.2775 0.875 3.9375 C0.875 3.2775 0.875 2.6175 0.875 1.9375 C-1.75401288 3.45956009 -3.96865964 4.78115964 -6.125 6.9375 C-8.75 7.0625 -8.75 7.0625 -11.125 6.9375 C-9.46284732 5.59854368 -7.79536393 4.26619858 -6.125 2.9375 C-5.444375 2.339375 -4.76375 1.74125 -4.0625 1.125 C-2.125 -0.0625 -2.125 -0.0625 0 0 Z " fill="#E2736C" transform="translate(136.125,27.0625)"/>
<path d="M0 0 C0.33 0 0.66 0 1 0 C1.36109542 1.64432706 1.71370076 3.2905208 2.0625 4.9375 C2.25972656 5.85402344 2.45695313 6.77054687 2.66015625 7.71484375 C2.77230469 8.46894531 2.88445312 9.22304687 3 10 C2 11 2 11 -0.5625 11.0625 C-1.366875 11.041875 -2.17125 11.02125 -3 11 C-3.33 10.34 -3.66 9.68 -4 9 C-2.68 8.67 -1.36 8.34 0 8 C-0.33 7.01 -0.66 6.02 -1 5 C-0.5625 2.3125 -0.5625 2.3125 0 0 Z " fill="#EBF1F8" transform="translate(140,72)"/>
<path d="M0 0 C0.66 0.33 1.32 0.66 2 1 C0.76736651 4.69790046 -0.20052451 4.9354846 -3.5625 6.6875 C-4.80193359 7.34298828 -4.80193359 7.34298828 -6.06640625 8.01171875 C-6.70449219 8.33785156 -7.34257812 8.66398437 -8 9 C-8.33 8.01 -8.66 7.02 -9 6 C-7.68 6 -6.36 6 -5 6 C-5 5.34 -5 4.68 -5 4 C-4.01 4 -3.02 4 -2 4 C-2 3.34 -2 2.68 -2 2 C-1.34 2 -0.68 2 0 2 C0 1.34 0 0.68 0 0 Z " fill="#CF5C55" transform="translate(136,82)"/>
<path d="M0 0 C2.64 0 5.28 0 8 0 C7.401875 0.28875 6.80375 0.5775 6.1875 0.875 C3.80672208 2.04742026 3.80672208 2.04742026 1 4 C0.26656572 7.06556598 0.26656572 7.06556598 0 10 C-1.125 8.375 -1.125 8.375 -2 6 C-1.125 2.75 -1.125 2.75 0 0 Z " fill="#E36561" transform="translate(131,68)"/>
<path d="M0 0 C0.66 0.66 1.32 1.32 2 2 C1.67 3.32 1.34 4.64 1 6 C-3.455 6.495 -3.455 6.495 -8 7 C-5.07735566 5.53867783 -3.07536854 4.65900754 0 4 C0 2.68 0 1.36 0 0 Z " fill="#5884BE" transform="translate(144,128)"/>
<path d="M0 0 C-0.33 1.32 -0.66 2.64 -1 4 C-4.875 2.25 -4.875 2.25 -6 0 C-6.66 -0.33 -7.32 -0.66 -8 -1 C-4.59745511 -2.2151946 -3.06748874 -1.86240388 0 0 Z " fill="#D8EFF9" transform="translate(124,116)"/>
<path d="M0 0 C0.33 0.99 0.66 1.98 1 3 C0.34 3.66 -0.32 4.32 -1 5 C-3.3828125 4.9765625 -3.3828125 4.9765625 -6.125 4.625 C-7.03507813 4.51414062 -7.94515625 4.40328125 -8.8828125 4.2890625 C-9.93082031 4.14597656 -9.93082031 4.14597656 -11 4 C-11 3.67 -11 3.34 -11 3 C-10.37351563 2.95101562 -9.74703125 2.90203125 -9.1015625 2.8515625 C-8.28429687 2.77679688 -7.46703125 2.70203125 -6.625 2.625 C-5.81289062 2.55539063 -5.00078125 2.48578125 -4.1640625 2.4140625 C-1.79665809 2.17107412 -1.79665809 2.17107412 0 0 Z " fill="#DCF7F3" transform="translate(185,57)"/>
<path d="M0 0 C0 0.66 0 1.32 0 2 C-2.97 2 -5.94 2 -9 2 C-9.33 1.34 -9.66 0.68 -10 0 C-6.30581799 -1.231394 -3.7943739 -0.64432764 0 0 Z " fill="#CEE5F5" transform="translate(162,81)"/>
<path d="M0 0 C-0.33 0.99 -0.66 1.98 -1 3 C-2.75 3.5625 -2.75 3.5625 -5 4 C-6.6744239 4.6469365 -8.34302621 5.30959426 -10 6 C-10 5.34 -10 4.68 -10 4 C-6.32547562 1.1605948 -4.73113419 0 0 0 Z " fill="#FEEEE7" transform="translate(138,25)"/>
<path d="M0 0 C1.76462683 3.08809695 2 4.23312136 2 8 C0.68 8 -0.64 8 -2 8 C-1.34 5.36 -0.68 2.72 0 0 Z " fill="#E8E8E8" transform="translate(236,158)"/>
<path d="M0 0 C0.99 0.33 1.98 0.66 3 1 C2.67 2.98 2.34 4.96 2 7 C1.01 7.33 0.02 7.66 -1 8 C-0.67 5.36 -0.34 2.72 0 0 Z " fill="#7B7C7D" transform="translate(181,149)"/>
<path d="M0 0 C1.32 0.66 2.64 1.32 4 2 C2.87926138 2.83905565 1.75325453 3.67107831 0.625 4.5 C-0.00148437 4.9640625 -0.62796875 5.428125 -1.2734375 5.90625 C-3 7 -3 7 -5 7 C-3.88820837 3.66462511 -2.52588702 2.36292656 0 0 Z " fill="#DD665D" transform="translate(155,71)"/>
<path d="M0 0 C0.66 0.33 1.32 0.66 2 1 C1.67 4.63 1.34 8.26 1 12 C0.67 12 0.34 12 0 12 C-1.28571429 3.42857143 -1.28571429 3.42857143 0 0 Z " fill="#7FBFB0" transform="translate(190,31)"/>
<path d="M0 0 C0.99 0 1.98 0 3 0 C3 1.65 3 3.3 3 5 C2.01 5.33 1.02 5.66 0 6 C0 4.02 0 2.04 0 0 Z " fill="#F9FAF7" transform="translate(194,156)"/>
<path d="M0 0 C2.475 0.495 2.475 0.495 5 1 C5.33 1.99 5.66 2.98 6 4 C4.35 4.33 2.7 4.66 1 5 C0.67 3.35 0.34 1.7 0 0 Z " fill="#686C68" transform="translate(192,149)"/>
<path d="M0 0 C1.134375 0.020625 2.26875 0.04125 3.4375 0.0625 C3.4375 0.3925 3.4375 0.7225 3.4375 1.0625 C1.7875 1.3925 0.1375 1.7225 -1.5625 2.0625 C-1.8925 4.0425 -2.2225 6.0225 -2.5625 8.0625 C-2.8925 8.0625 -3.2225 8.0625 -3.5625 8.0625 C-3.94313221 5.7364143 -4.27519945 3.40194736 -4.5625 1.0625 C-3.5625 0.0625 -3.5625 0.0625 0 0 Z " fill="#515110" transform="translate(163.5625,102.9375)"/>
</svg>
