<?xml version="1.0" encoding="UTF-8"?>
<svg version="1.1" xmlns="http://www.w3.org/2000/svg" width="269" height="188">
<path d="M0 0 C1.09406158 -0.00335861 2.18812317 -0.00671722 3.31533813 -0.01017761 C6.91344354 -0.01963416 10.5115021 -0.02162842 14.10961914 -0.02270508 C16.63196328 -0.02592259 19.15430724 -0.02928703 21.676651 -0.03279114 C26.96135762 -0.03877009 32.24605253 -0.0406755 37.53076172 -0.04003906 C43.5921541 -0.03944076 49.65345678 -0.04994917 55.71482652 -0.06578273 C61.59289064 -0.08057673 67.47092012 -0.08402319 73.34900093 -0.08342934 C75.82656786 -0.08459923 78.30413566 -0.08896442 80.7816906 -0.0967617 C112.96176153 -0.18851631 140.43490878 3.0002765 164.31665039 26.73901367 C176.47132925 40.65402533 181.99716688 56.55044736 180.94995117 74.84106445 C179.90189072 84.79236679 175.38240409 94.03193152 169.70727539 102.14526367 C169.19551758 102.90194336 168.68375977 103.65862305 168.15649414 104.43823242 C154.42506313 123.47871313 132.88659368 131.89836496 110.56929016 135.67649841 C106.21595435 136.20489945 102.00428904 136.26003669 97.62597656 136.22363281 C95.79859982 136.21752129 93.97122246 136.21159407 92.1438446 136.20582581 C90.70386392 136.19881747 90.70386392 136.19881747 89.23479271 136.19166756 C84.1155784 136.17237517 78.99642269 136.18770984 73.87719727 136.19799805 C67.37914081 136.21023721 60.8817435 136.21190309 54.38378906 136.16943359 C49.11683416 136.13592755 43.85117482 136.14154711 38.58422279 136.17300224 C36.58568044 136.17790863 34.58704902 136.16873187 32.58864403 136.14479256 C19.82474814 135.68354586 19.82474814 135.68354586 8.63427734 141.01025391 C7.29053043 142.35473845 5.97706117 143.73071832 4.70727539 145.14526367 C3.4928728 146.20410572 2.26629887 147.249431 1.01977539 148.27026367 C-0.08554515 149.22726592 -1.18971782 150.18559559 -2.29272461 151.14526367 C-6.31607095 154.62339528 -10.36389175 158.04094722 -14.54272461 161.33276367 C-17.98180588 164.0433696 -21.24840284 166.8779552 -24.48022461 169.83276367 C-34.71108534 179.14526367 -34.71108534 179.14526367 -38.29272461 179.14526367 C-39.49075706 176.74919876 -39.3953012 175.32356423 -39.35864258 172.65136719 C-39.34400467 171.25465538 -39.34400467 171.25465538 -39.32907104 169.82972717 C-39.3144986 168.82139328 -39.29992615 167.81305939 -39.28491211 166.77416992 C-39.26739647 164.65242991 -39.25048812 162.53068481 -39.23413086 160.40893555 C-39.20313481 157.05324388 -39.16758732 153.69780326 -39.12133789 150.34228516 C-39.07909547 147.11121434 -39.05558434 143.8804409 -39.03491211 140.64916992 C-39.0162912 139.64286026 -38.99767029 138.6365506 -38.97848511 137.5997467 C-38.97503082 136.66545334 -38.97157654 135.73115997 -38.96801758 134.76855469 C-38.95833954 133.94629898 -38.9486615 133.12404327 -38.93869019 132.27687073 C-39.37822362 129.63048236 -40.22533609 128.79630614 -42.29272461 127.14526367 C-43.58612935 126.44226661 -44.90139137 125.77874842 -46.23022461 125.14526367 C-52.8369546 121.56796109 -57.98689397 116.37103376 -63.29272461 111.14526367 C-64.11256836 110.36151367 -64.93241211 109.57776367 -65.77709961 108.77026367 C-76.36561326 97.96267733 -83.20233212 82.68174418 -83.60522461 67.52026367 C-83.53634696 65.72689366 -83.43362371 63.93441643 -83.29272461 62.14526367 C-83.20571289 60.98317383 -83.20571289 60.98317383 -83.11694336 59.79760742 C-80.74376284 42.67067813 -68.32126637 27.56420215 -55.29272461 17.14526367 C-49.29174612 12.68872306 -42.91286797 9.35504767 -36.10522461 6.33276367 C-35.45215332 6.04256348 -34.79908203 5.75236328 -34.1262207 5.45336914 C-23.02845357 0.71634691 -11.95552675 -0.00533959 0 0 Z " fill="#FDFEFD" transform="translate(86.292724609375,3.854736328125)"/>
<path d="M0 0 C3.64493703 2.21299748 4.03535838 6.06723034 5 10 C8.77293011 9.35931376 11.34774012 7.61305333 14.5 5.5 C20.26760563 1.63380282 20.26760563 1.63380282 24 1 C30 11 30 11 31.51171875 13.83203125 C32.24841797 14.90517578 32.24841797 14.90517578 33 16 C33.99 16 34.98 16 36 16 C36.763125 15.175 37.52625 14.35 38.3125 13.5 C41 11 41 11 44.125 10.5 C47 11 47 11 48.875 12.0625 C50.66235303 15.14071911 50.43386742 17.52906068 50 21 C47.41126058 23.87637713 44.76085859 24.47765853 41 25 C41.69420651 30.46439692 44.50028429 33.95989125 47.6015625 38.37890625 C49 41 49 41 48.96484375 43.15625 C47.35561055 46.23138389 44.5844977 47.5292888 41.71484375 49.33984375 C39.71259547 50.91715912 39.71259547 50.91715912 39.75390625 53.69140625 C39.83511719 54.45324219 39.91632813 55.21507812 40 56 C41.28777344 56 42.57554688 56 43.90234375 56 C48.93489583 56 53.96744792 56 59 56 C58.98952637 55.43490723 58.97905273 54.86981445 58.96826172 54.28759766 C58.92675212 51.73344347 58.9006904 49.17936018 58.875 46.625 C58.85824219 45.73554687 58.84148437 44.84609375 58.82421875 43.9296875 C58.81777344 43.07890625 58.81132812 42.228125 58.8046875 41.3515625 C58.79421387 40.56604004 58.78374023 39.78051758 58.77294922 38.97119141 C59 37 59 37 61 35 C63.34765625 34.83984375 63.34765625 34.83984375 66.0625 34.9375 C67.70756977 34.99178494 69.35416024 35.02031901 71 35 C72.39287806 33.82963695 72.39287806 33.82963695 72.1875 30.5625 C72.39564928 26.94967279 72.39564928 26.94967279 70 25 C67.3548634 25.01640153 67.3548634 25.01640153 64.4375 25.4375 C62.62907484 25.66090753 60.81656242 25.8571243 59 26 C55.91488328 22.91488328 56.92199288 14.11986641 56.875 9.9375 C57 6 57 6 58 5 C59.47652664 4.90119203 60.95767236 4.86920755 62.4375 4.8671875 C63.33210938 4.86589844 64.22671875 4.86460938 65.1484375 4.86328125 C66.08945313 4.86714844 67.03046875 4.87101562 68 4.875 C69.41152344 4.86919922 69.41152344 4.86919922 70.8515625 4.86328125 C72.19347656 4.86521484 72.19347656 4.86521484 73.5625 4.8671875 C74.38878906 4.86831543 75.21507812 4.86944336 76.06640625 4.87060547 C78 5 78 5 79 6 C79.07244053 8.01964199 79.08377188 10.04167124 79.0625 12.0625 C79.05347656 13.16722656 79.04445313 14.27195312 79.03515625 15.41015625 C79.02355469 16.26480469 79.01195312 17.11945312 79 18 C82.40320934 18.67673447 82.40320934 18.67673447 86 19 C86.66 18.34 87.32 17.68 88 17 C88.02207488 14.32186601 88.02207488 14.32186601 87.625 11.375 C87.51414062 10.37210938 87.40328125 9.36921875 87.2890625 8.3359375 C87.19367188 7.56507812 87.09828125 6.79421875 87 6 C91.32547034 2.74949862 95.09689352 2.63072283 100.3125 2.8125 C101.42334961 2.83280273 101.42334961 2.83280273 102.55664062 2.85351562 C104.37141075 2.88864021 106.18580288 2.94244028 108 3 C108.06058594 4.27617187 108.12117188 5.55234375 108.18359375 6.8671875 C108.26799568 8.53647016 108.35264386 10.20574037 108.4375 11.875 C108.47681641 12.71675781 108.51613281 13.55851562 108.55664062 14.42578125 C108.59853516 15.23144531 108.64042969 16.03710938 108.68359375 16.8671875 C108.72025146 17.61081543 108.75690918 18.35444336 108.79467773 19.12060547 C108.89955865 21.08864312 108.89955865 21.08864312 110 23 C111.24716797 22.85691406 111.24716797 22.85691406 112.51953125 22.7109375 C113.60621094 22.60007812 114.69289062 22.48921875 115.8125 22.375 C116.89144531 22.25898437 117.97039062 22.14296875 119.08203125 22.0234375 C122 22 122 22 125 24 C125.42276465 27.24119567 125.38481521 29.26210692 123.86328125 32.1796875 C122 34 122 34 119.08203125 34.390625 C118.00308594 34.34421875 116.92414063 34.2978125 115.8125 34.25 C114.72582031 34.21390625 113.63914063 34.1778125 112.51953125 34.140625 C111.68808594 34.09421875 110.85664063 34.0478125 110 34 C109.87869381 41.08967304 110.18320926 47.95517985 111 55 C101.1 55.495 101.1 55.495 91 56 C91.495 57.98 91.495 57.98 92 60 C92.11291505 61.53879581 92.17459967 63.08212089 92.1875 64.625 C92.20167969 65.40101562 92.21585937 66.17703125 92.23046875 66.9765625 C92 69 92 69 90 71 C87.90625 71.265625 87.90625 71.265625 85.5 71.25 C84.7059375 71.25515625 83.911875 71.2603125 83.09375 71.265625 C81 71 81 71 79 69 C78.72216457 64.98805634 78.9143505 61.02552638 79 57 C73.39 57 67.78 57 62 57 C62.165 58.44375 62.33 59.8875 62.5 61.375 C63.55499981 72.10847629 63.55499981 72.10847629 63 77 C61 79 61 79 58.1796875 79.1953125 C57.08914062 79.17210938 55.99859375 79.14890625 54.875 79.125 C53.77929688 79.10695313 52.68359375 79.08890625 51.5546875 79.0703125 C50.71164063 79.04710938 49.86859375 79.02390625 49 79 C49 81.64 49 84.28 49 87 C53.29 86.67 57.58 86.34 62 86 C64.10209857 89.15314785 64.2434761 89.86103081 64.1953125 93.44921875 C64.18886719 94.29677734 64.18242187 95.14433594 64.17578125 96.01757812 C64.15064453 97.33918945 64.15064453 97.33918945 64.125 98.6875 C64.11597656 99.58017578 64.10695313 100.47285156 64.09765625 101.39257812 C64.07409748 103.59532314 64.04120329 105.79752588 64 108 C62.515 107.505 62.515 107.505 61 107 C59.5277302 106.99583025 58.05470846 107.05472346 56.5859375 107.15625 C55.74289063 107.20910156 54.89984375 107.26195313 54.03125 107.31640625 C53.1546875 107.37699219 52.278125 107.43757813 51.375 107.5 C49.63313192 107.61934082 47.89094717 107.73417501 46.1484375 107.84375 C44.99093994 107.92399414 44.99093994 107.92399414 43.81005859 108.00585938 C42 108 42 108 41 107 C40.92771785 103.89186744 41.00385413 100.79573128 41.0625 97.6875 C41.31133058 95.081172 41.31133058 95.081172 40 94 C36.54178598 93.74996036 36.54178598 93.74996036 33 94 C32.34 94.66 31.68 95.32 31 96 C31.2730774 98.89160979 31.2730774 98.89160979 32 102 C32.2784375 103.423125 32.2784375 103.423125 32.5625 104.875 C32.706875 105.57625 32.85125 106.2775 33 107 C30.08175756 108.66674321 28.02405621 109.2432008 24.671875 109.1953125 C23.9509668 109.19031738 23.23005859 109.18532227 22.48730469 109.18017578 C21.13233887 109.15286377 21.13233887 109.15286377 19.75 109.125 C16.8625 109.08375 13.975 109.0425 11 109 C10.505 99.595 10.505 99.595 10 90 C6.89338162 88.69182906 6.89338162 88.69182906 3.125 89.75 C-0.49556021 90.27200313 -0.81626942 90.12748652 -4.0625 87.875 C-6 85 -6 85 -5.9375 82.3125 C-5 80 -5 80 -3 78 C-0.1796875 77.8046875 -0.1796875 77.8046875 3.125 77.875 C4.22070312 77.89304687 5.31640625 77.91109375 6.4453125 77.9296875 C7.28835937 77.95289062 8.13140625 77.97609375 9 78 C9 75.69 9 73.38 9 71 C7.515 70.505 7.515 70.505 6 70 C3.9921875 67.48828125 3.9921875 67.48828125 1.875 64.3125 C1.17117187 63.27738281 0.46734375 62.24226563 -0.2578125 61.17578125 C-2.02308321 57.95792232 -2.82222389 55.65486766 -3 52 C-0.31720027 49.31720027 2.38679134 48.98542054 6 48 C7.27003323 46.94689723 7.27003323 46.94689723 7.1875 44.5625 C7.26839983 41.83265325 7.26839983 41.83265325 5 40 C1.60402937 39.78323592 -0.75778445 39.91926148 -4 41 C-5.20882096 43.00016466 -5.20882096 43.00016466 -6 45 C-8.58523109 44.62031163 -9.7665704 44.24427352 -11.59765625 42.328125 C-13.07855536 40.22722279 -14.55562114 38.12622251 -16 36 C-16.639375 35.113125 -17.27875 34.22625 -17.9375 33.3125 C-19 31 -19 31 -18.97265625 28.609375 C-17.57876085 24.86992871 -14.86130314 23.71806292 -11.5 21.9375 C-6.93208502 19.72267925 -6.93208502 19.72267925 -4.09375 15.75390625 C-4.0628125 15.17511719 -4.031875 14.59632812 -4 14 C-5.2065625 13.195625 -5.2065625 13.195625 -6.4375 12.375 C-9 10 -9 10 -10.0625 7 C-10 4 -10 4 -8.4375 1.625 C-5.3433886 -0.43774093 -3.65259739 -0.54400387 0 0 Z " fill="#397CC6" transform="translate(85,15)"/>
<path d="M0 0 C3.64493703 2.21299748 4.03535838 6.06723034 5 10 C8.77293011 9.35931376 11.34774012 7.61305333 14.5 5.5 C20.26760563 1.63380282 20.26760563 1.63380282 24 1 C30 11 30 11 31.51171875 13.83203125 C32.24841797 14.90517578 32.24841797 14.90517578 33 16 C33.99 16 34.98 16 36 16 C36.763125 15.175 37.52625 14.35 38.3125 13.5 C41 11 41 11 44.125 10.5 C47 11 47 11 48.875 12.0625 C50.66235303 15.14071911 50.43386742 17.52906068 50 21 C47.41126058 23.87637713 44.76085859 24.47765853 41 25 C41.69420651 30.46439692 44.50028429 33.95989125 47.6015625 38.37890625 C49 41 49 41 49.03515625 43.07421875 C47.50136406 45.92765102 45.41783617 47.35137445 42.8125 49.25 C41.87019531 49.95640625 40.92789063 50.6628125 39.95703125 51.390625 C36.65895581 53.18561454 34.69548293 53.32848737 31 53 C30.34 51.02 29.68 49.04 29 47 C29.495 51.455 29.495 51.455 30 56 C27.525 56.495 27.525 56.495 25 57 C24.67 57.99 24.34 58.98 24 60 C21.73388125 61.62569389 19.49762376 63.11098466 17.125 64.5625 C15.85676847 65.35546497 14.58853922 66.14843359 13.3203125 66.94140625 C11.67675781 67.96041016 11.67675781 67.96041016 10 69 C8.515 69.99 8.515 69.99 7 71 C-3.14568686 56.9350204 -3.14568686 56.9350204 -2.84765625 52.9765625 C-2 51 -2 51 0.06640625 49.734375 C1.30197266 49.24710938 1.30197266 49.24710938 2.5625 48.75 C3.38878906 48.41484375 4.21507813 48.0796875 5.06640625 47.734375 C5.70449219 47.49203125 6.34257813 47.2496875 7 47 C7.16687448 44.58354218 7.16687448 44.58354218 7 42 C5.12355493 39.68313634 5.12355493 39.68313634 2.0625 39.8125 C-1.04093079 39.87049768 -1.04093079 39.87049768 -4 41 C-5.20882096 43.00016466 -5.20882096 43.00016466 -6 45 C-8.58523109 44.62031163 -9.7665704 44.24427352 -11.59765625 42.328125 C-13.07855536 40.22722279 -14.55562114 38.12622251 -16 36 C-16.639375 35.113125 -17.27875 34.22625 -17.9375 33.3125 C-19 31 -19 31 -18.97265625 28.609375 C-17.57876085 24.86992871 -14.86130314 23.71806292 -11.5 21.9375 C-6.93208502 19.72267925 -6.93208502 19.72267925 -4.09375 15.75390625 C-4.0628125 15.17511719 -4.031875 14.59632812 -4 14 C-5.2065625 13.195625 -5.2065625 13.195625 -6.4375 12.375 C-9 10 -9 10 -10.0625 7 C-10 4 -10 4 -8.4375 1.625 C-5.3433886 -0.43774093 -3.65259739 -0.54400387 0 0 Z " fill="#F25A4C" transform="translate(85,15)"/>
<path d="M0 0 C1.11084961 0.02030273 1.11084961 0.02030273 2.24414062 0.04101562 C4.05891075 0.07614021 5.87330288 0.12994028 7.6875 0.1875 C7.74808594 1.46367187 7.80867188 2.73984375 7.87109375 4.0546875 C7.95549568 5.72397016 8.04014386 7.39324037 8.125 9.0625 C8.16431641 9.90425781 8.20363281 10.74601562 8.24414062 11.61328125 C8.28603516 12.41894531 8.32792969 13.22460938 8.37109375 14.0546875 C8.42608032 15.17012939 8.42608032 15.17012939 8.48217773 16.30810547 C8.58705865 18.27614312 8.58705865 18.27614312 9.6875 20.1875 C10.93466797 20.04441406 10.93466797 20.04441406 12.20703125 19.8984375 C13.29371094 19.78757812 14.38039062 19.67671875 15.5 19.5625 C16.57894531 19.44648437 17.65789062 19.33046875 18.76953125 19.2109375 C21.6875 19.1875 21.6875 19.1875 24.6875 21.1875 C25.11026465 24.42869567 25.07231521 26.44960692 23.55078125 29.3671875 C21.6875 31.1875 21.6875 31.1875 18.76953125 31.578125 C17.69058594 31.53171875 16.61164063 31.4853125 15.5 31.4375 C12.6228125 31.31375 12.6228125 31.31375 9.6875 31.1875 C9.6875 37.4575 9.6875 43.7275 9.6875 50.1875 C1.4375 50.625 1.4375 50.625 -1.14160156 50.75561523 C-1.8219043 50.79372314 -2.50220703 50.83183105 -3.203125 50.87109375 C-4.24001465 50.92608032 -4.24001465 50.92608032 -5.29785156 50.98217773 C-7.37878329 51.19425524 -9.29822422 51.63258677 -11.3125 52.1875 C-10.8175 54.0128125 -10.8175 54.0128125 -10.3125 55.875 C-9.53115545 59.05096886 -8.82998164 61.90637512 -9.3125 65.1875 C-13.1628105 67.75437367 -14.89819763 67.02038724 -19.3125 66.1875 C-19.3125 61.8975 -19.3125 57.6075 -19.3125 53.1875 C-21.609037 52.0392315 -22.89563167 52.07188825 -25.4453125 52.08984375 C-26.25097656 52.09306641 -27.05664062 52.09628906 -27.88671875 52.09960938 C-28.72847656 52.10798828 -29.57023438 52.11636719 -30.4375 52.125 C-31.71173828 52.13176758 -31.71173828 52.13176758 -33.01171875 52.13867188 C-35.11200909 52.15047126 -37.2122633 52.16840694 -39.3125 52.1875 C-39.6425 52.8475 -39.9725 53.5075 -40.3125 54.1875 C-42.5522148 51.9477852 -41.49781833 46.75852512 -41.5 43.75 C-41.51224609 42.86505859 -41.52449219 41.98011719 -41.53710938 41.06835938 C-41.53904297 40.22208984 -41.54097656 39.37582031 -41.54296875 38.50390625 C-41.54707764 37.72474854 -41.55118652 36.94559082 -41.55541992 36.14282227 C-41.3125 34.1875 -41.3125 34.1875 -39.3125 32.1875 C-36.96484375 32.02734375 -36.96484375 32.02734375 -34.25 32.125 C-32.60493023 32.17928494 -30.95833976 32.20781901 -29.3125 32.1875 C-27.91962194 31.01713695 -27.91962194 31.01713695 -28.125 27.75 C-27.91685072 24.13717279 -27.91685072 24.13717279 -30.3125 22.1875 C-32.9576366 22.20390153 -32.9576366 22.20390153 -35.875 22.625 C-37.68342516 22.84840753 -39.49593758 23.0446243 -41.3125 23.1875 C-44.39761672 20.10238328 -43.39050712 11.30736641 -43.4375 7.125 C-43.3125 3.1875 -43.3125 3.1875 -42.3125 2.1875 C-40.83597336 2.08869203 -39.35482764 2.05670755 -37.875 2.0546875 C-36.98039063 2.05339844 -36.08578125 2.05210938 -35.1640625 2.05078125 C-34.22304687 2.05464844 -33.28203125 2.05851562 -32.3125 2.0625 C-30.90097656 2.05669922 -30.90097656 2.05669922 -29.4609375 2.05078125 C-28.11902344 2.05271484 -28.11902344 2.05271484 -26.75 2.0546875 C-25.92371094 2.05581543 -25.09742188 2.05694336 -24.24609375 2.05810547 C-22.3125 2.1875 -22.3125 2.1875 -21.3125 3.1875 C-21.24005947 5.20714199 -21.22872812 7.22917124 -21.25 9.25 C-21.25902344 10.35472656 -21.26804688 11.45945312 -21.27734375 12.59765625 C-21.28894531 13.45230469 -21.30054688 14.30695312 -21.3125 15.1875 C-17.90929066 15.86423447 -17.90929066 15.86423447 -14.3125 16.1875 C-13.6525 15.5275 -12.9925 14.8675 -12.3125 14.1875 C-12.29042512 11.50936601 -12.29042512 11.50936601 -12.6875 8.5625 C-12.79835937 7.55960938 -12.90921875 6.55671875 -13.0234375 5.5234375 C-13.11882812 4.75257812 -13.21421875 3.98171875 -13.3125 3.1875 C-8.98702966 -0.06300138 -5.21560648 -0.18177717 0 0 Z " fill="#54B49F" transform="translate(185.3125,17.8125)"/>
<path d="M0 0 C1.13598633 0.00483398 1.13598633 0.00483398 2.29492188 0.00976562 C3.47344727 0.02233398 3.47344727 0.02233398 4.67578125 0.03515625 C5.47306641 0.03966797 6.27035156 0.04417969 7.09179688 0.04882812 C9.05732382 0.06059775 11.0228121 0.07853277 12.98828125 0.09765625 C13.01716639 3.24347048 13.03504048 6.38925094 13.05078125 9.53515625 C13.05916016 10.43298828 13.06753906 11.33082031 13.07617188 12.25585938 C13.07939453 13.10986328 13.08261719 13.96386719 13.0859375 14.84375 C13.09117432 15.63450928 13.09641113 16.42526855 13.10180664 17.23999023 C12.98828125 19.09765625 12.98828125 19.09765625 11.98828125 20.09765625 C9.80188672 20.17024571 7.61327736 20.18139408 5.42578125 20.16015625 C3.62947266 20.14662109 3.62947266 20.14662109 1.796875 20.1328125 C0.87003906 20.12121094 -0.05679688 20.10960938 -1.01171875 20.09765625 C-1.03234375 21.39703125 -1.05296875 22.69640625 -1.07421875 24.03515625 C-1.08582031 24.76605469 -1.09742188 25.49695313 -1.109375 26.25 C-1.21733059 28.11497766 -1.21733059 28.11497766 -0.01171875 29.09765625 C2.15444707 29.14424046 4.32194217 29.13533171 6.48828125 29.09765625 C8.65462033 29.05998079 10.82211543 29.05107204 12.98828125 29.09765625 C13.98828125 30.09765625 13.98828125 30.09765625 14.10180664 32.04711914 C14.09395142 33.29609985 14.09395142 33.29609985 14.0859375 34.5703125 C14.08110352 35.91899414 14.08110352 35.91899414 14.07617188 37.29492188 C14.06360352 38.71321289 14.06360352 38.71321289 14.05078125 40.16015625 C14.04626953 41.10955078 14.04175781 42.05894531 14.03710938 43.03710938 C14.02528253 45.39065156 14.00734646 47.74416157 13.98828125 50.09765625 C7.71828125 50.42765625 1.44828125 50.75765625 -5.01171875 51.09765625 C-4.67140625 53.97484375 -4.67140625 53.97484375 -4.32421875 56.91015625 C-3.65343399 62.58133652 -3.65343399 62.58133652 -5.3046875 64.9609375 C-7.93797927 66.71445673 -9.93416533 66.48235043 -13.01171875 66.09765625 C-14.69140625 64.89453125 -14.69140625 64.89453125 -16.01171875 63.09765625 C-16.26953125 60.65234375 -16.26953125 60.65234375 -16.13671875 57.97265625 C-16.06611006 56.3486564 -16.017545 54.72317991 -16.01171875 53.09765625 C-17.19596201 51.68188148 -17.19596201 51.68188148 -20.57421875 52.03515625 C-22.05344537 52.05117675 -23.53262369 52.07224225 -25.01171875 52.09765625 C-27.68461033 52.14358222 -30.33741785 52.14457381 -33.01171875 52.09765625 C-35.10742822 50.00194678 -34.38410774 45.56921455 -34.51171875 42.66015625 C-34.52109536 37.21261482 -34.52109536 37.21261482 -36.01171875 32.09765625 C-39.38876072 32.01528937 -42.47270002 32.16566988 -45.82421875 32.66015625 C-46.87609375 32.80453125 -47.92796875 32.94890625 -49.01171875 33.09765625 C-50.01171875 32.09765625 -50.01171875 32.09765625 -50.14453125 30.28515625 C-50.14195312 29.56328125 -50.139375 28.84140625 -50.13671875 28.09765625 C-50.13929688 27.37578125 -50.141875 26.65390625 -50.14453125 25.91015625 C-50.01171875 24.09765625 -50.01171875 24.09765625 -49.01171875 23.09765625 C-45.90358619 23.0253741 -42.80745003 23.10151038 -39.69921875 23.16015625 C-37.09289075 23.40898683 -37.09289075 23.40898683 -36.01171875 22.09765625 C-35.92502443 20.60893765 -35.90468381 19.11621125 -35.9140625 17.625 C-35.91728516 16.72587891 -35.92050781 15.82675781 -35.92382812 14.90039062 C-35.93220703 13.95486328 -35.94058594 13.00933594 -35.94921875 12.03515625 C-35.95373047 11.08576172 -35.95824219 10.13636719 -35.96289062 9.15820312 C-35.97471765 6.8046256 -35.9911985 4.45117148 -36.01171875 2.09765625 C-31.82506674 1.44041916 -27.81229924 0.97710035 -23.57421875 1.03515625 C-22.27677734 1.04869141 -22.27677734 1.04869141 -20.953125 1.0625 C-20.31246094 1.07410156 -19.67179687 1.08570312 -19.01171875 1.09765625 C-18.22514637 4.24394578 -17.96531692 7.12272876 -18.01171875 10.34765625 C-18.01171875 11.58515625 -18.01171875 12.82265625 -18.01171875 14.09765625 C-17.00702252 15.32217405 -17.00702252 15.32217405 -14.98046875 15.23046875 C-14.16578125 15.22789063 -13.35109375 15.2253125 -12.51171875 15.22265625 C-11.69703125 15.22523437 -10.88234375 15.2278125 -10.04296875 15.23046875 C-8.01641498 15.32217405 -8.01641498 15.32217405 -7.01171875 14.09765625 C-6.93912929 11.91126172 -6.92798092 9.72265236 -6.94921875 7.53515625 C-6.95824219 6.33761719 -6.96726563 5.14007813 -6.9765625 3.90625 C-6.98816406 2.97941406 -6.99976563 2.05257812 -7.01171875 1.09765625 C-4.30455633 0.19526878 -2.77395107 -0.02085677 0 0 Z " fill="#FACF08" transform="translate(183.01171875,69.90234375)"/>
<path d="M0 0 C0.79921875 0.00644531 1.5984375 0.01289062 2.421875 0.01953125 C3.246875 0.03628906 4.071875 0.05304688 4.921875 0.0703125 C5.76234375 0.07933594 6.6028125 0.08835937 7.46875 0.09765625 C9.53658104 0.12115433 11.60426495 0.15702342 13.671875 0.1953125 C13.671875 0.8553125 13.671875 1.5153125 13.671875 2.1953125 C3.771875 2.6903125 3.771875 2.6903125 -6.328125 3.1953125 C-5.833125 5.1753125 -5.833125 5.1753125 -5.328125 7.1953125 C-5.21520995 8.73410831 -5.15352533 10.27743339 -5.140625 11.8203125 C-5.12644531 12.59632812 -5.11226562 13.37234375 -5.09765625 14.171875 C-5.328125 16.1953125 -5.328125 16.1953125 -7.328125 18.1953125 C-9.421875 18.4609375 -9.421875 18.4609375 -11.828125 18.4453125 C-12.6221875 18.45046875 -13.41625 18.455625 -14.234375 18.4609375 C-16.328125 18.1953125 -16.328125 18.1953125 -18.328125 16.1953125 C-18.60596043 12.18336884 -18.4137745 8.22083888 -18.328125 4.1953125 C-23.938125 4.1953125 -29.548125 4.1953125 -35.328125 4.1953125 C-35.080625 6.3609375 -35.080625 6.3609375 -34.828125 8.5703125 C-33.77312519 19.30378879 -33.77312519 19.30378879 -34.328125 24.1953125 C-36.328125 26.1953125 -36.328125 26.1953125 -39.1484375 26.390625 C-40.23898438 26.36742188 -41.32953125 26.34421875 -42.453125 26.3203125 C-43.54882812 26.30226563 -44.64453125 26.28421875 -45.7734375 26.265625 C-46.61648437 26.24242188 -47.45953125 26.21921875 -48.328125 26.1953125 C-48.328125 28.8353125 -48.328125 31.4753125 -48.328125 34.1953125 C-41.893125 33.7003125 -41.893125 33.7003125 -35.328125 33.1953125 C-33.22602643 36.34846035 -33.0846489 37.05634331 -33.1328125 40.64453125 C-33.13925781 41.49208984 -33.14570313 42.33964844 -33.15234375 43.21289062 C-33.16910156 44.09396484 -33.18585938 44.97503906 -33.203125 45.8828125 C-33.21214844 46.77548828 -33.22117188 47.66816406 -33.23046875 48.58789062 C-33.25402752 50.79063564 -33.28692171 52.99283838 -33.328125 55.1953125 C-33.988125 55.1953125 -34.648125 55.1953125 -35.328125 55.1953125 C-35.658125 48.9253125 -35.988125 42.6553125 -36.328125 36.1953125 C-40.86914062 36.73242188 -40.86914062 36.73242188 -45.41015625 37.26953125 C-48.328125 37.1953125 -48.328125 37.1953125 -50.1953125 36 C-51.62152783 33.72789144 -51.69778751 32.30186222 -51.640625 29.6328125 C-51.63675781 28.84777344 -51.63289062 28.06273438 -51.62890625 27.25390625 C-51.328125 25.1953125 -51.328125 25.1953125 -49.328125 23.1953125 C-46.2890625 23.21875 -46.2890625 23.21875 -42.703125 23.5703125 C-41.51460937 23.68117188 -40.32609375 23.79203125 -39.1015625 23.90625 C-38.18632812 24.00164062 -37.27109375 24.09703125 -36.328125 24.1953125 C-36.43640625 23.16083984 -36.43640625 23.16083984 -36.546875 22.10546875 C-38.15286727 5.84479704 -38.15286727 5.84479704 -36.328125 2.1953125 C-33.39107369 1.97376123 -30.45432137 1.76757053 -27.515625 1.5703125 C-26.68224609 1.50585938 -25.84886719 1.44140625 -24.99023438 1.375 C-23.78657227 1.29765625 -23.78657227 1.29765625 -22.55859375 1.21875 C-21.45100708 1.14019775 -21.45100708 1.14019775 -20.32104492 1.06005859 C-18.328125 1.1953125 -18.328125 1.1953125 -15.328125 3.1953125 C-15.658125 7.4853125 -15.988125 11.7753125 -16.328125 16.1953125 C-11.67759628 16.46463771 -11.67759628 16.46463771 -7.328125 15.1953125 C-7.658125 10.9053125 -7.988125 6.6153125 -8.328125 2.1953125 C-4.70316658 0.38283329 -3.7329544 -0.05332792 0 0 Z " fill="#213216" transform="translate(182.328125,67.8046875)"/>
<path d="M0 0 C2.27645169 1.30082954 2.84615552 2.50943931 3.62109375 4.98046875 C4.13279449 6.97433713 4.57094234 8.98672945 5 11 C4.01 11.33 3.02 11.66 2 12 C1.34 9.03 0.68 6.06 0 3 C-1.65 3 -3.3 3 -5 3 C-4.67 3.66 -4.34 4.32 -4 5 C-4.33 5.99 -4.66 6.98 -5 8 C-4.34 8.66 -3.68 9.32 -3 10 C-2.34 10.66 -1.68 11.32 -1 12 C-1.33746678 18.18689105 -1.33746678 18.18689105 -3.375 20.6875 C-4.179375 21.3371875 -4.179375 21.3371875 -5 22 C-5.474375 22.70125 -5.94875 23.4025 -6.4375 24.125 C-8.27487461 26.32984953 -9.22307579 26.56610559 -12 27 C-12.99 27.33 -13.98 27.66 -15 28 C-15.20158921 31.62860585 -15.02123249 33.94350209 -13 37 C-10.83718718 38.1225649 -10.83718718 38.1225649 -8.375 38.75 C-7.55773437 38.99234375 -6.74046875 39.2346875 -5.8984375 39.484375 C-5.27195312 39.65453125 -4.64546875 39.8246875 -4 40 C-4 39.34 -4 38.68 -4 38 C2.435 37.505 2.435 37.505 9 37 C10.38583211 41.15749634 10.39644889 44.8182017 9 49 C6.7662809 51.02481011 4.83341159 51.81511879 2 53 C2.33 56.63 2.66 60.26 3 64 C0.02551753 61.02551753 -1.42529201 58.85803457 -3 55 C-2.86328125 52.94921875 -2.86328125 52.94921875 -2 51 C0.06640625 49.734375 0.06640625 49.734375 2.5625 48.75 C3.38878906 48.41484375 4.21507813 48.0796875 5.06640625 47.734375 C5.70449219 47.49203125 6.34257813 47.2496875 7 47 C7.16687448 44.58354218 7.16687448 44.58354218 7 42 C5.12355493 39.68313634 5.12355493 39.68313634 2.0625 39.8125 C-1.04093079 39.87049768 -1.04093079 39.87049768 -4 41 C-5.20882096 43.00016466 -5.20882096 43.00016466 -6 45 C-8.58523109 44.62031163 -9.7665704 44.24427352 -11.59765625 42.328125 C-13.07855536 40.22722279 -14.55562114 38.12622251 -16 36 C-16.639375 35.113125 -17.27875 34.22625 -17.9375 33.3125 C-19 31 -19 31 -18.97265625 28.609375 C-17.57876085 24.86992871 -14.86130314 23.71806292 -11.5 21.9375 C-6.93208502 19.72267925 -6.93208502 19.72267925 -4.09375 15.75390625 C-4.0628125 15.17511719 -4.031875 14.59632812 -4 14 C-5.2065625 13.195625 -5.2065625 13.195625 -6.4375 12.375 C-9 10 -9 10 -10.0625 7 C-10 4 -10 4 -8.4375 1.625 C-5.3433886 -0.43774093 -3.65259739 -0.54400387 0 0 Z M-2 7 C-1.67 7.66 -1.34 8.32 -1 9 C-1.66 8.67 -2.32 8.34 -3 8 C-2.67 7.67 -2.34 7.34 -2 7 Z " fill="#E6675D" transform="translate(85,15)"/>
<path d="M0 0 C0.495 0.515625 0.99 1.03125 1.5 1.5625 C3.01472806 3.34595268 3.01472806 3.34595268 6 3 C6.66 4.32 7.32 5.64 8 7 C7.34 7 6.68 7 6 7 C6 7.66 6 8.32 6 9 C6.99 9.33 7.98 9.66 9 10 C8.34 10 7.68 10 7 10 C7 10.66 7 11.32 7 12 C2.63497158 14.04610707 -1.21525483 14.76848007 -6 15 C-8.15322835 13.45627016 -8.88401772 12.38336658 -9.65234375 9.84375 C-9.9362805 7.51002327 -10.15333077 5.3481512 -10 3 C-7.13362512 -0.27585701 -4.17794968 -1.39264989 0 0 Z " fill="#F3594B" transform="translate(96,65)"/>
<path d="M0 0 C0.33 0 0.66 0 1 0 C1.87803974 5.92676823 2.65653817 12.0132621 2 18 C0 20 0 20 -2.8203125 20.1953125 C-3.91085938 20.17210938 -5.00140625 20.14890625 -6.125 20.125 C-7.22070312 20.10695313 -8.31640625 20.08890625 -9.4453125 20.0703125 C-10.28835937 20.04710938 -11.13140625 20.02390625 -12 20 C-12 22.64 -12 25.28 -12 28 C-5.565 27.505 -5.565 27.505 1 27 C3.10209857 30.15314785 3.2434761 30.86103081 3.1953125 34.44921875 C3.18886719 35.29677734 3.18242187 36.14433594 3.17578125 37.01757812 C3.15902344 37.89865234 3.14226562 38.77972656 3.125 39.6875 C3.11597656 40.58017578 3.10695312 41.47285156 3.09765625 42.39257812 C3.07409748 44.59532314 3.04120329 46.79752588 3 49 C2.34 49 1.68 49 1 49 C0.67 42.73 0.34 36.46 0 30 C-3.02734375 30.35807292 -6.0546875 30.71614583 -9.08203125 31.07421875 C-12 31 -12 31 -13.8671875 29.8046875 C-15.29340283 27.53257894 -15.36966251 26.10654972 -15.3125 23.4375 C-15.30863281 22.65246094 -15.30476562 21.86742188 -15.30078125 21.05859375 C-15 19 -15 19 -13 17 C-9.9609375 17.0234375 -9.9609375 17.0234375 -6.375 17.375 C-5.18648437 17.48585938 -3.99796875 17.59671875 -2.7734375 17.7109375 C-1.85820312 17.80632812 -0.94296875 17.90171875 0 18 C-0.08378906 17.11957031 -0.16757813 16.23914063 -0.25390625 15.33203125 C-0.35574219 14.17058594 -0.45757812 13.00914063 -0.5625 11.8125 C-0.66691406 10.66394531 -0.77132812 9.51539062 -0.87890625 8.33203125 C-0.98859985 5.31368801 -0.74002389 2.91076064 0 0 Z " fill="#282B12" transform="translate(146,74)"/>
<path d="M0 0 C2.64 0 5.28 0 8 0 C7.401875 0.28875 6.80375 0.5775 6.1875 0.875 C3.80672208 2.04742026 3.80672208 2.04742026 1 4 C0.24862832 6.8707236 0.24862832 6.8707236 1 10 C2.83688211 12.04985395 4.72888726 13.39129514 7 15 C5.61415403 19.15753791 2.69360927 20.3793089 -0.875 22.5625 C-2.14323153 23.35546497 -3.41146078 24.14843359 -4.6796875 24.94140625 C-6.32324219 25.96041016 -6.32324219 25.96041016 -8 27 C-8.99 27.66 -9.98 28.32 -11 29 C-15 24.25 -15 24.25 -15 22 C-13.35 22 -11.7 22 -10 22 C-10 21.67 -10 21.34 -10 21 C-8.63875 21.0309375 -8.63875 21.0309375 -7.25 21.0625 C-4.57327412 21.0110245 -2.53011948 20.7784983 0 20 C-0.165 19.21625 -0.33 18.4325 -0.5 17.625 C-1 15 -1 15 -1 13 C-1.33 12.34 -1.66 11.68 -2 11 C-2.23553948 6.76028942 -2.32845886 3.63821698 0 0 Z " fill="#E76054" transform="translate(103,57)"/>
<path d="M0 0 C0.36098063 1.97793521 0.71361348 3.95739573 1.0625 5.9375 C1.25972656 7.03964844 1.45695312 8.14179687 1.66015625 9.27734375 C1.77230469 10.17582031 1.88445312 11.07429688 2 12 C1 13 1 13 -1.1875 13.375 C-5.34913487 12.82011535 -7.17416159 11.02298993 -10 8 C-10.625 4.875 -10.625 4.875 -10 2 C-6.86938807 -1.73265269 -4.45528622 -0.88495411 0 0 Z " fill="#FBFBF9" transform="translate(113,59)"/>
<path d="M0 0 C2.875 0.5 2.875 0.5 4.75 1.5625 C6.53735303 4.64071911 6.30886742 7.02906068 5.875 10.5 C4.1875 12.4375 4.1875 12.4375 1.875 13.5 C-0.875 13.6875 -0.875 13.6875 -3.125 13.5 C-3.125 12.51 -3.125 11.52 -3.125 10.5 C-1.805 10.83 -0.485 11.16 0.875 11.5 C0.71 10.88125 0.545 10.2625 0.375 9.625 C-0.125 7.5 -0.125 7.5 -0.125 5.5 C-0.785 5.17 -1.445 4.84 -2.125 4.5 C-4.9089183 5.89195915 -5.10398997 7.65575779 -6.125 10.5 C-7.115 10.17 -8.105 9.84 -9.125 9.5 C-9.125 8.84 -9.125 8.18 -9.125 7.5 C-10.445 7.17 -11.765 6.84 -13.125 6.5 C-13.455 5.18 -13.785 3.86 -14.125 2.5 C-13.4753125 3.2425 -13.4753125 3.2425 -12.8125 4 C-11.12759517 5.83218192 -11.12759517 5.83218192 -8.125 5.5 C-7.361875 4.675 -6.59875 3.85 -5.8125 3 C-3.125 0.5 -3.125 0.5 0 0 Z " fill="#E96056" transform="translate(129.125,25.5)"/>
<path d="M0 0 C0.33 0 0.66 0 1 0 C1.95261487 4.76307437 2.08333357 9.1666528 2 14 C3.57201172 13.83951172 3.57201172 13.83951172 5.17578125 13.67578125 C6.55461314 13.55384374 7.93352396 13.43279635 9.3125 13.3125 C10.34793945 13.20325195 10.34793945 13.20325195 11.40429688 13.09179688 C16.44512697 12.67781566 16.44512697 12.67781566 18.9375 14.125 C20.3795344 16.66976659 20.51635036 18.77795615 20.6875 21.6875 C20.78611328 23.17830078 20.78611328 23.17830078 20.88671875 24.69921875 C20.92410156 25.45847656 20.96148437 26.21773437 21 27 C22.98 27.33 24.96 27.66 27 28 C27.33 25.03 27.66 22.06 28 19 C30 21 30 21 30.3125 23.9375 C30 27 30 27 28.875 28.875 C26.11909116 30.52854531 24.14924548 30.39365568 21 30 C19.3203125 28.796875 19.3203125 28.796875 18 27 C17.7421875 24.5546875 17.7421875 24.5546875 17.875 21.875 C17.94560869 20.25100015 17.99417375 18.62552366 18 17 C16.81575674 15.58422523 16.81575674 15.58422523 13.4375 15.9375 C11.95827338 15.9535205 10.47909506 15.974586 9 16 C6.32710842 16.04592597 3.6743009 16.04691756 1 16 C0 15 0 15 -0.09765625 11.62109375 C-0.09098369 10.22652923 -0.07902532 8.83198257 -0.0625 7.4375 C-0.05798828 6.72658203 -0.05347656 6.01566406 -0.04882812 5.28320312 C-0.03700864 3.52209987 -0.01907263 1.76103964 0 0 Z " fill="#F2D233" transform="translate(149,106)"/>
<path d="M0 0 C1.66611905 -0.042721 3.33382885 -0.04063832 5 0 C6.8855253 1.8855253 6.13246689 4.57768831 6.13671875 7.08203125 C6.13285156 7.87996094 6.12898438 8.67789063 6.125 9.5 C6.13080078 10.69689453 6.13080078 10.69689453 6.13671875 11.91796875 C6.12660767 17.87339233 6.12660767 17.87339233 5 19 C1.84826437 19.37850908 -1.33026242 19.46948618 -4.5 19.625 C-5.39332031 19.6765625 -6.28664062 19.728125 -7.20703125 19.78125 C-8.05652344 19.82507813 -8.90601563 19.86890625 -9.78125 19.9140625 C-10.56564453 19.9548291 -11.35003906 19.9955957 -12.15820312 20.03759766 C-14 20 -14 20 -15 19 C-14.91036938 17.30858344 -14.75422324 15.62040398 -14.5625 13.9375 C-14.46066406 13.01839844 -14.35882813 12.09929687 -14.25390625 11.15234375 C-14.17011719 10.44207031 -14.08632812 9.73179688 -14 9 C-13.34 9 -12.68 9 -12 9 C-12.33 11.97 -12.66 14.94 -13 18 C-11.10388566 17.85786703 -9.20811606 17.71113093 -7.3125 17.5625 C-6.25675781 17.48128906 -5.20101562 17.40007812 -4.11328125 17.31640625 C-0.66594348 17.01635775 -0.66594348 17.01635775 4 16 C4 11.05 4 6.1 4 1 C2.68 0.67 1.36 0.34 0 0 Z " fill="#5582B2" transform="translate(141,103)"/>
<path d="M0 0 C1.32 0 2.64 0 4 0 C3.42415568 2.38564077 2.77772405 4.66682784 2 7 C-0.109375 8.09765625 -0.109375 8.09765625 -2.75 9.0625 C-3.61109375 9.38347656 -4.4721875 9.70445313 -5.359375 10.03515625 C-6.23078125 10.35355469 -7.1021875 10.67195313 -8 11 C-8.87140625 11.39058594 -9.7428125 11.78117187 -10.640625 12.18359375 C-13 13 -13 13 -16 12 C-14.43902526 10.8936781 -12.87614673 9.79004215 -11.3125 8.6875 C-10.44238281 8.07261719 -9.57226562 7.45773438 -8.67578125 6.82421875 C-6 5 -6 5 -3.23046875 3.39453125 C-0.8800692 2.19456815 -0.8800692 2.19456815 0 0 Z " fill="#4577AC" transform="translate(110,72)"/>
<path d="M0 0 C1.45792884 -0.05399736 2.91642712 -0.09279177 4.375 -0.125 C5.18710938 -0.14820312 5.99921875 -0.17140625 6.8359375 -0.1953125 C9 0 9 0 11 2 C12.15387027 8.34628646 12.08048919 14.5608646 12 21 C7.38 21 2.76 21 -2 21 C-2.33 20.01 -2.66 19.02 -3 18 C0.96 18 4.92 18 9 18 C9.020625 16.288125 9.04125 14.57625 9.0625 12.8125 C9.07410156 11.84957031 9.08570313 10.88664062 9.09765625 9.89453125 C9.00486622 7.14423487 8.62111685 4.67520409 8 2 C5.36 1.67 2.72 1.34 0 1 C0 0.67 0 0.34 0 0 Z " fill="#5E85A2" transform="translate(134,71)"/>
<path d="M0 0 C2.80870625 1.16628183 3.41709001 2.61990502 4.80078125 5.2890625 C5.22875 6.09214844 5.65671875 6.89523438 6.09765625 7.72265625 C7.05078125 9.8515625 7.05078125 9.8515625 7.05078125 11.8515625 C6.39078125 11.8515625 5.73078125 11.8515625 5.05078125 11.8515625 C4.72078125 10.8615625 4.39078125 9.8715625 4.05078125 8.8515625 C2.73078125 9.8415625 1.41078125 10.8315625 0.05078125 11.8515625 C0.05078125 10.2015625 0.05078125 8.5515625 0.05078125 6.8515625 C-0.93921875 6.8515625 -1.92921875 6.8515625 -2.94921875 6.8515625 C-2.94921875 6.1915625 -2.94921875 5.5315625 -2.94921875 4.8515625 C-3.93921875 5.5115625 -4.92921875 6.1715625 -5.94921875 6.8515625 C-8.63671875 6.9765625 -8.63671875 6.9765625 -10.94921875 6.8515625 C-9.28706607 5.51260618 -7.61958268 4.18026108 -5.94921875 2.8515625 C-5.26859375 2.2534375 -4.58796875 1.6553125 -3.88671875 1.0390625 C-1.94921875 -0.1484375 -1.94921875 -0.1484375 0 0 Z " fill="#ED5E52" transform="translate(107.94921875,16.1484375)"/>
<path d="M0 0 C0.66 0 1.32 0 2 0 C2 2.97 2 5.94 2 9 C-2.00329408 11.00164704 -2.61626774 11.21524302 -6.6875 10.5625 C-8.11996523 10.33977627 -9.55743113 10.14337906 -11 10 C-11.33 10.33 -11.66 10.66 -12 11 C-12 12.65 -12 14.3 -12 16 C-8.04 16.33 -4.08 16.66 0 17 C-2.45886984 19.45886984 -4.54489642 19.80565072 -7.953125 20.16015625 C-10 20 -10 20 -13.0625 17.875 C-15 15 -15 15 -14.9375 12.3125 C-14 10 -14 10 -12 8 C-9.1796875 7.8046875 -9.1796875 7.8046875 -5.875 7.875 C-4.77929688 7.89304687 -3.68359375 7.91109375 -2.5546875 7.9296875 C-1.71164063 7.95289062 -0.86859375 7.97609375 0 8 C0 5.36 0 2.72 0 0 Z " fill="#527FB5" transform="translate(94,85)"/>
<path d="M0 0 C0.33 0 0.66 0 1 0 C1.87803974 5.92676823 2.65653817 12.0132621 2 18 C0 20 0 20 -2.8203125 20.1953125 C-3.91085938 20.17210938 -5.00140625 20.14890625 -6.125 20.125 C-7.22070312 20.10695313 -8.31640625 20.08890625 -9.4453125 20.0703125 C-10.28835937 20.04710938 -11.13140625 20.02390625 -12 20 C-12.33 21.98 -12.66 23.96 -13 26 C-13.33 26 -13.66 26 -14 26 C-14.625 22.625 -14.625 22.625 -15 19 C-14.34 18.34 -13.68 17.68 -13 17 C-9.9609375 17.0234375 -9.9609375 17.0234375 -6.375 17.375 C-5.18648437 17.48585938 -3.99796875 17.59671875 -2.7734375 17.7109375 C-1.85820312 17.80632812 -0.94296875 17.90171875 0 18 C-0.08378906 17.11957031 -0.16757813 16.23914063 -0.25390625 15.33203125 C-0.35574219 14.17058594 -0.45757812 13.00914063 -0.5625 11.8125 C-0.66691406 10.66394531 -0.77132812 9.51539062 -0.87890625 8.33203125 C-0.98859985 5.31368801 -0.74002389 2.91076064 0 0 Z " fill="#3A320A" transform="translate(146,74)"/>
<path d="M0 0 C0.66 0 1.32 0 2 0 C2 6.27 2 12.54 2 19 C4.3925 18.855625 6.785 18.71125 9.25 18.5625 C9.99668945 18.51939697 10.74337891 18.47629395 11.51269531 18.43188477 C14.77672382 18.22426165 17.86545184 17.96136915 21 17 C21.33 15.68 21.66 14.36 22 13 C22.33 14.65 22.66 16.3 23 18 C20.08175756 19.66674321 18.02405621 20.2432008 14.671875 20.1953125 C13.9509668 20.19031738 13.23005859 20.18532227 12.48730469 20.18017578 C11.58399414 20.16196777 10.68068359 20.14375977 9.75 20.125 C5.41875 20.063125 5.41875 20.063125 1 20 C0.67 13.4 0.34 6.8 0 0 Z " fill="#487CB3" transform="translate(95,104)"/>
<path d="M0 0 C0.33 0 0.66 0 1 0 C1.33 6.27 1.66 12.54 2 19 C1.34 18.67 0.68 18.34 0 18 C-1.37548156 17.91691362 -2.75485796 17.89263984 -4.1328125 17.90234375 C-4.93847656 17.90556641 -5.74414062 17.90878906 -6.57421875 17.91210938 C-7.41597656 17.92048828 -8.25773438 17.92886719 -9.125 17.9375 C-10.39923828 17.94426758 -10.39923828 17.94426758 -11.69921875 17.95117188 C-13.79950909 17.96297126 -15.8997633 17.98090694 -18 18 C-18.33 17.34 -18.66 16.68 -19 16 C-13.2691325 14.16207027 -6.92309564 14.94515652 -1 15 C-0.67 10.05 -0.34 5.1 0 0 Z " fill="#D5F0F0" transform="translate(143,54)"/>
<path d="M0 0 C0.33 0 0.66 0 1 0 C1.375 3.1875 1.375 3.1875 1 7 C-0.96185416 8.71140469 -2.96302383 10.37873325 -5 12 C-5.96298724 15.17562802 -5.96298724 15.17562802 -6 18 C-8.89932357 15.60490662 -9.50168276 13.68754757 -10 10 C-9.36191406 9.78085937 -8.72382812 9.56171875 -8.06640625 9.3359375 C-5.55695588 8.3728723 -3.28375825 7.42196269 -1 6 C0.21790719 2.883975 0.21790719 2.883975 0 0 Z " fill="#FCE2DD" transform="translate(135,30)"/>
<path d="M0 0 C0.89460937 -0.00128906 1.78921875 -0.00257812 2.7109375 -0.00390625 C3.65195313 -0.00003906 4.59296875 0.00382812 5.5625 0.0078125 C6.97402344 0.00201172 6.97402344 0.00201172 8.4140625 -0.00390625 C9.75597656 -0.00197266 9.75597656 -0.00197266 11.125 0 C11.95128906 0.00112793 12.77757812 0.00225586 13.62890625 0.00341797 C15.5625 0.1328125 15.5625 0.1328125 16.5625 1.1328125 C16.47265699 2.99053412 16.31638139 4.84529235 16.125 6.6953125 C16.02316406 7.70722656 15.92132813 8.71914063 15.81640625 9.76171875 C15.73261719 10.54417969 15.64882812 11.32664062 15.5625 12.1328125 C15.2325 12.1328125 14.9025 12.1328125 14.5625 12.1328125 C13.4375 4.5078125 13.4375 4.5078125 14.5625 1.1328125 C8.6225 1.4628125 2.6825 1.7928125 -3.4375 2.1328125 C-3.7675 4.7728125 -4.0975 7.4128125 -4.4375 10.1328125 C-4.7675 10.1328125 -5.0975 10.1328125 -5.4375 10.1328125 C-5.46439216 8.65374358 -5.48384621 7.17453767 -5.5 5.6953125 C-5.51160156 4.87160156 -5.52320313 4.04789063 -5.53515625 3.19921875 C-5.35316192 -0.65178137 -3.35168319 0.00457523 0 0 Z " fill="#68B0A0" transform="translate(147.4375,19.8671875)"/>
<path d="M0 0 C2.62386487 3.06117568 3 3.73173127 3 8 C5.64 7.67 8.28 7.34 11 7 C11.33 8.65 11.66 10.3 12 12 C8.53058454 11.54177532 5.32604951 11.10868317 2 10 C-0.28341107 6.75515269 -0.17615457 3.87540045 0 0 Z " fill="#6774A4" transform="translate(113,60)"/>
<path d="M0 0 C1.65 0.99 3.3 1.98 5 3 C4.875 4.75 4.875 4.75 4 7 C0.9375 9.25 0.9375 9.25 -2 11 C-2.33 10.34 -2.66 9.68 -3 9 C-2.34 9 -1.68 9 -1 9 C-1.020625 7.700625 -1.04125 6.40125 -1.0625 5.0625 C-1.08399454 3.70834367 -1.07148199 2.35243917 -1 1 C-0.67 0.67 -0.34 0.34 0 0 Z " fill="#FDF0EB" transform="translate(77,26)"/>
<path d="M0 0 C1.98 0 3.96 0 6 0 C5.49339844 0.84304687 5.49339844 0.84304687 4.9765625 1.703125 C3.8310942 4.39726644 3.9529974 5.88038233 4.375 8.75 C4.48585938 9.54921875 4.59671875 10.3484375 4.7109375 11.171875 C4.80632812 11.77515625 4.90171875 12.3784375 5 13 C2.1268033 10.28014807 0.50726941 7.69281006 -1 4 C-0.6875 1.625 -0.6875 1.625 0 0 Z " fill="#E36559" transform="translate(83,66)"/>
<path d="M0 0 C0.99 0.33 1.98 0.66 3 1 C0.54162318 2.72960899 -1.91947523 4.45492477 -4.38671875 6.171875 C-5.89961764 7.23022579 -7.40612185 8.29810181 -8.89453125 9.390625 C-10.4375 10.5 -10.4375 10.5 -13 12 C-13.99 11.67 -14.98 11.34 -16 11 C-13.54162318 9.27039101 -11.08052477 7.54507523 -8.61328125 5.828125 C-7.10038236 4.76977421 -5.59387815 3.70189819 -4.10546875 2.609375 C-2.5625 1.5 -2.5625 1.5 0 0 Z " fill="#271828" transform="translate(110,73)"/>
<path d="M0 0 C0.66 0 1.32 0 2 0 C1.50886719 0.76570313 1.50886719 0.76570313 1.0078125 1.546875 C-0.35648384 4.86772037 -0.1912273 7.67372568 -0.125 11.25 C-0.10695312 12.51328125 -0.08890625 13.7765625 -0.0703125 15.078125 C-0.04710937 16.04234375 -0.02390625 17.0065625 0 18 C1.65 18.33 3.3 18.66 5 19 C5 19.33 5 19.66 5 20 C3.35 20 1.7 20 0 20 C-0.33 20.66 -0.66 21.32 -1 22 C-3.2397148 19.7602852 -2.18531833 14.57102512 -2.1875 11.5625 C-2.19974609 10.67755859 -2.21199219 9.79261719 -2.22460938 8.88085938 C-2.22654297 8.03458984 -2.22847656 7.18832031 -2.23046875 6.31640625 C-2.23457764 5.53724854 -2.23868652 4.75809082 -2.24291992 3.95532227 C-2 2 -2 2 0 0 Z " fill="#68B3A1" transform="translate(146,50)"/>
<path d="M0 0 C5.37313433 -0.35820896 5.37313433 -0.35820896 7.75 1 C9.70888997 4.13422395 10.23167283 7.39477251 11 11 C10.01 11.33 9.02 11.66 8 12 C7.34 9.03 6.68 6.06 6 3 C3.69 2.67 1.38 2.34 -1 2 C-0.67 1.34 -0.34 0.68 0 0 Z " fill="#E46D66" transform="translate(79,15)"/>
<path d="M0 0 C0.12375 0.639375 0.2475 1.27875 0.375 1.9375 C0.58125 2.618125 0.7875 3.29875 1 4 C1.66 4.33 2.32 4.66 3 5 C-1.62 5 -6.24 5 -11 5 C-11.33 4.01 -11.66 3.02 -12 2 C-8.04 2 -4.08 2 0 2 C0 1.34 0 0.68 0 0 Z " fill="#4773AB" transform="translate(143,87)"/>
<path d="M0 0 C1 1 1 1 1.25 3.875 C1 7 1 7 -0.5 8.875 C-0.995 9.24625 -1.49 9.6175 -2 10 C-1.814375 9.05125 -1.62875 8.1025 -1.4375 7.125 C-0.71313368 4.10131207 -0.71313368 4.10131207 -2 2 C-4.31 2 -6.62 2 -9 2 C-9.33 1.34 -9.66 0.68 -10 0 C-6.423475 -1.23802788 -3.65753437 -0.81278541 0 0 Z " fill="#70B6A5" transform="translate(209,38)"/>
<path d="M0 0 C0 0.33 0 0.66 0 1 C-2.31 1.66 -4.62 2.32 -7 3 C-7 5.31 -7 7.62 -7 10 C-7.99 9.34 -8.98 8.68 -10 8 C-10.4375 5.0625 -10.4375 5.0625 -10 2 C-6.92702006 -1.66393762 -4.38919352 -1.09729838 0 0 Z " fill="#FEE3DC" transform="translate(113,59)"/>
<path d="M0 0 C2.41527102 1.20763551 2.9183747 2.46621798 3.875 4.9375 C2.885 4.6075 1.895 4.2775 0.875 3.9375 C0.875 3.2775 0.875 2.6175 0.875 1.9375 C-1.75401288 3.45956009 -3.96865964 4.78115964 -6.125 6.9375 C-8.75 7.0625 -8.75 7.0625 -11.125 6.9375 C-9.46284732 5.59854368 -7.79536393 4.26619858 -6.125 2.9375 C-5.444375 2.339375 -4.76375 1.74125 -4.0625 1.125 C-2.125 -0.0625 -2.125 -0.0625 0 0 Z " fill="#E2736C" transform="translate(108.125,16.0625)"/>
<path d="M0 0 C0.33 0 0.66 0 1 0 C1.36109542 1.64432706 1.71370076 3.2905208 2.0625 4.9375 C2.25972656 5.85402344 2.45695312 6.77054687 2.66015625 7.71484375 C2.77230469 8.46894531 2.88445312 9.22304687 3 10 C2 11 2 11 -0.5625 11.0625 C-1.366875 11.041875 -2.17125 11.02125 -3 11 C-3.33 10.34 -3.66 9.68 -4 9 C-2.68 8.67 -1.36 8.34 0 8 C-0.33 7.01 -0.66 6.02 -1 5 C-0.5625 2.3125 -0.5625 2.3125 0 0 Z " fill="#EBF1F8" transform="translate(112,61)"/>
<path d="M0 0 C0.66 0.33 1.32 0.66 2 1 C0.76736651 4.69790046 -0.20052451 4.9354846 -3.5625 6.6875 C-4.80193359 7.34298828 -4.80193359 7.34298828 -6.06640625 8.01171875 C-6.70449219 8.33785156 -7.34257813 8.66398437 -8 9 C-8.33 8.01 -8.66 7.02 -9 6 C-7.68 6 -6.36 6 -5 6 C-5 5.34 -5 4.68 -5 4 C-4.01 4 -3.02 4 -2 4 C-2 3.34 -2 2.68 -2 2 C-1.34 2 -0.68 2 0 2 C0 1.34 0 0.68 0 0 Z " fill="#CF5C55" transform="translate(108,71)"/>
<path d="M0 0 C2.64 0 5.28 0 8 0 C7.401875 0.28875 6.80375 0.5775 6.1875 0.875 C3.80672208 2.04742026 3.80672208 2.04742026 1 4 C0.26656572 7.06556598 0.26656572 7.06556598 0 10 C-1.125 8.375 -1.125 8.375 -2 6 C-1.125 2.75 -1.125 2.75 0 0 Z " fill="#E36561" transform="translate(103,57)"/>
<path d="M0 0 C0.66 0.66 1.32 1.32 2 2 C1.67 3.32 1.34 4.64 1 6 C-3.455 6.495 -3.455 6.495 -8 7 C-5.07735566 5.53867783 -3.07536854 4.65900754 0 4 C0 2.68 0 1.36 0 0 Z " fill="#5884BE" transform="translate(116,117)"/>
<path d="M0 0 C-0.33 1.32 -0.66 2.64 -1 4 C-4.875 2.25 -4.875 2.25 -6 0 C-6.66 -0.33 -7.32 -0.66 -8 -1 C-4.59745511 -2.2151946 -3.06748874 -1.86240388 0 0 Z " fill="#D8EFF9" transform="translate(96,105)"/>
<path d="M0 0 C0.33 0.99 0.66 1.98 1 3 C0.34 3.66 -0.32 4.32 -1 5 C-3.3828125 4.9765625 -3.3828125 4.9765625 -6.125 4.625 C-7.03507813 4.51414062 -7.94515625 4.40328125 -8.8828125 4.2890625 C-9.93082031 4.14597656 -9.93082031 4.14597656 -11 4 C-11 3.67 -11 3.34 -11 3 C-10.37351563 2.95101562 -9.74703125 2.90203125 -9.1015625 2.8515625 C-8.28429687 2.77679688 -7.46703125 2.70203125 -6.625 2.625 C-5.81289062 2.55539063 -5.00078125 2.48578125 -4.1640625 2.4140625 C-1.79665809 2.17107412 -1.79665809 2.17107412 0 0 Z " fill="#DCF7F3" transform="translate(157,46)"/>
<path d="M0 0 C2.64 0.33 5.28 0.66 8 1 C6.35 2.32 4.7 3.64 3 5 C1.5 3.625 1.5 3.625 0 2 C0 1.34 0 0.68 0 0 Z " fill="#FEFBDD" transform="translate(168,135)"/>
<path d="M0 0 C0 0.66 0 1.32 0 2 C-2.97 2 -5.94 2 -9 2 C-9.33 1.34 -9.66 0.68 -10 0 C-6.30581799 -1.231394 -3.7943739 -0.64432764 0 0 Z " fill="#CEE5F5" transform="translate(134,70)"/>
<path d="M0 0 C-0.33 0.99 -0.66 1.98 -1 3 C-2.75 3.5625 -2.75 3.5625 -5 4 C-6.6744239 4.6469365 -8.34302621 5.30959426 -10 6 C-10 5.34 -10 4.68 -10 4 C-6.32547562 1.1605948 -4.73113419 0 0 0 Z " fill="#FEEEE7" transform="translate(110,14)"/>
<path d="M0 0 C1.32 0.66 2.64 1.32 4 2 C2.87926138 2.83905565 1.75325453 3.67107831 0.625 4.5 C-0.00148438 4.9640625 -0.62796875 5.428125 -1.2734375 5.90625 C-3 7 -3 7 -5 7 C-3.88820837 3.66462511 -2.52588702 2.36292656 0 0 Z " fill="#DD665D" transform="translate(127,60)"/>
<path d="M0 0 C0.66 0.33 1.32 0.66 2 1 C1.67 4.63 1.34 8.26 1 12 C0.67 12 0.34 12 0 12 C-1.28571429 3.42857143 -1.28571429 3.42857143 0 0 Z " fill="#7FBFB0" transform="translate(162,20)"/>
<path d="M0 0 C1.134375 0.020625 2.26875 0.04125 3.4375 0.0625 C3.4375 0.3925 3.4375 0.7225 3.4375 1.0625 C1.7875 1.3925 0.1375 1.7225 -1.5625 2.0625 C-1.8925 4.0425 -2.2225 6.0225 -2.5625 8.0625 C-2.8925 8.0625 -3.2225 8.0625 -3.5625 8.0625 C-3.94313221 5.7364143 -4.27519945 3.40194736 -4.5625 1.0625 C-3.5625 0.0625 -3.5625 0.0625 0 0 Z " fill="#515110" transform="translate(135.5625,91.9375)"/>
</svg>
